<?xml version="1.0" standalone="no"?>
<!DOCTYPE svg PUBLIC "-//W3C//DTD SVG 1.1//EN" "http://www.w3.org/Graphics/SVG/1.1/DTD/svg11.dtd" >
<svg>
<metadata>
Created by FontForge 20090914 at Wed Mar 16 20:16:11 2022
 By www-data
&#194;&#169; 1990, 2002 Adobe Systems Incorporated. All rights reserved. &#194;&#169; 1989, 1990, 2002 The Monotype Corporation Plc. All rights reserved.
</metadata>
<defs>
<font id="RockwellStd-Light" horiz-adv-x="552" >
  <font-face 
    font-family="Rockwell Std Light"
    font-weight="300"
    font-stretch="normal"
    units-per-em="1000"
    panose-1="2 4 3 3 2 1 2 2 2 3"
    ascent="679"
    descent="-321"
    x-height="473"
    cap-height="679"
    bbox="-84 -224 1006 906"
    underline-thickness="50"
    underline-position="-100"
    unicode-range="U+0020-U+FB02"
  />
<missing-glyph horiz-adv-x="500" 
d="M0 0v700h500v-700h-500zM250 395l170 255h-340zM280 350l170 -255v510zM80 50h340l-170 255zM50 605v-510l170 255z" />
    <glyph glyph-name="f_i" unicode="fi" horiz-adv-x="542" 
d="M435 690c11.333 0 21 -4 29 -12s12 -17.333 12 -28s-4 -20.167 -12 -28.5s-17.667 -12.5 -29 -12.5c-10.667 0 -20 4 -28 12s-12 17.667 -12 29c0 10.667 3.83301 20 11.5 28s17.167 12 28.5 12zM458 473v-428h71v-45h-197v45h74v383h-255v-383h69v-45h-197v45h76v383
h-73v45h73v87c0 43.333 12 75.833 36 97.5s51 32.5 81 32.5c28 0 51.833 -8.5 71.5 -25.5s32.834 -40.167 39.501 -69.5l-47 -7c-6.66699 20 -15.167 34.5 -25.5 43.5s-23.833 13.5 -40.5 13.5c-20.667 0 -36.334 -6.83301 -47.001 -20.5s-16 -32.167 -16 -55.5v-96h307z
" />
    <glyph glyph-name="f_l" unicode="fl" horiz-adv-x="542" 
d="M265 679h192v-634h72v-45h-197v45h73v589h-93c6 -8.66699 11 -21.667 15 -39l-47 -7c-6.66699 20 -15.167 34.5 -25.5 43.5s-23.833 13.5 -40.5 13.5c-20.667 0 -36.334 -6.83301 -47.001 -20.5s-16 -32.167 -16 -55.5v-96h77v-45h-77v-383h69v-45h-197v45h76v383h-76v45
h76v87c0 44 11.833 76.667 35.5 98s50.834 32 81.501 32c18 0 34.333 -3.66699 49 -11z" />
    <glyph glyph-name=".notdef" horiz-adv-x="500" 
d="M0 0v700h500v-700h-500zM250 395l170 255h-340zM280 350l170 -255v510zM80 50h340l-170 255zM50 605v-510l170 255z" />
    <glyph glyph-name="space" unicode=" " horiz-adv-x="250" 
 />
    <glyph glyph-name="exclam" unicode="!" horiz-adv-x="250" 
d="M153 93v-93h-56v93h56zM99 679h52v-212l-12 -287h-28l-12 287v212z" />
    <glyph glyph-name="quotedbl" unicode="&#x22;" horiz-adv-x="281" 
d="M49 460l-14 126v104h56v-104l-14 -126h-28zM205 460l-14 126v104h56v-104l-14 -126h-28z" />
    <glyph glyph-name="numbersign" unicode="#" horiz-adv-x="668" 
d="M265 698h47l-42 -204h190l42 204h47l-42 -204h80v-45h-90l-39 -194h129v-45h-139l-44 -203h-47l44 203h-188l-44 -203h-47l44 203h-84v45h92l40 194h-132v45h141zM261 449l-40 -194h190l39 194h-189z" />
    <glyph glyph-name="dollar" unicode="$" horiz-adv-x="510" 
d="M240 34l-0.000976562 291c-55.333 7.33301 -99.166 26 -131.499 56s-48.5 67.333 -48.5 112c0 47.333 16.5 86.333 49.5 117s76.5 47.667 130.5 51v29h46v-29c107.333 -15.333 163 -81 167 -197h-48c-2 86.667 -41.667 137.667 -119 153v-253
c130 -20 195 -81.333 195 -184c0 -54 -17 -97.667 -51 -131s-82 -53 -144 -59v-75h-46v75c-121.333 6 -189 76 -203 210h50c12 -102.667 63 -158 153 -166zM285.999 35c45.333 5.33301 81.333 20.501 108 45.501s40 57.5 40 97.5c0 34.667 -12 64.167 -36 88.5
s-61.333 40.166 -112 47.499v-279zM239.999 376.001v242.999c-39.333 -3.33301 -70.333 -15.666 -93 -36.999s-34 -49 -34 -83c0 -61.333 42.333 -102.333 127 -123z" />
    <glyph glyph-name="percent" unicode="%" horiz-adv-x="844" 
d="M810 176c0 -120.667 -45 -181 -135 -181c-44 0 -77.5 15.5 -100.5 46.5s-34.5 76.167 -34.5 135.5s11.5 104.333 34.5 135s56.833 46 101.5 46c89.333 0 134 -60.667 134 -182zM770 176c0 50 -8 88.167 -24 114.5s-39 39.5 -69 39.5c-63.333 0 -95 -51.333 -95 -154
c0 -102 31.333 -153 94 -153s94 51 94 153zM303 508c0 -120.667 -45 -181 -135 -181c-44 0 -77.5 15.5 -100.5 46.5s-34.5 76.167 -34.5 135.5s11.5 104.333 34.5 135s56.833 46 101.5 46c89.333 0 134 -60.667 134 -182zM263 508c0 50 -8 88.167 -24 114.5
s-39 39.5 -69 39.5c-63.333 0 -95 -51.333 -95 -154c0 -102 31.333 -153 94 -153s94 51 94 153zM165 0l478 679h34l-478 -679h-34z" />
    <glyph glyph-name="ampersand" unicode="&#x26;" horiz-adv-x="698" 
d="M524 0l-56.001 76.998c-58.667 -58 -123.667 -87 -195 -87c-62.667 0 -115.167 20.167 -157.5 60.5s-63.5 90.5 -63.5 150.5c0 94.667 59.333 163.334 178 206.001c-17.333 23.333 -30.333 41.333 -39 54s-16.5 27.167 -23.5 43.5s-10.5 31.5 -10.5 45.5
c0 38.667 15.667 71.667 47 99s69.333 41 114 41c42.667 0 78.834 -13.167 108.501 -39.5s44.5 -58.5 44.5 -96.5c0 -35.333 -13.5 -66 -40.5 -92s-69.833 -50.333 -128.5 -73l166 -235c36 52 61 114.333 75 187h115v-45h-76c-12 -44 -23.833 -78.667 -35.5 -104
s-27.5 -50.666 -47.5 -75.999l52 -71h107v-45h-134zM438.999 115.998l-182.001 254c-99.333 -35.333 -149 -89 -149 -161c0 -42 15.333 -80.833 46 -116.5s72.334 -53.5 125.001 -53.5c58 0 111.333 25.667 160 77zM275.998 425.998c48.667 17.333 85.667 36.166 111 56.499
s38 44.5 38 72.5c0 25.333 -10.5 46.833 -31.5 64.5s-46.833 26.5 -77.5 26.5c-31.333 0 -57.333 -8.66699 -78 -26s-31 -39 -31 -65c0 -5.33301 0.5 -10.5 1.5 -15.5s2.83301 -10.667 5.5 -17s5 -11.666 7 -15.999s5.66699 -10.333 11 -18l12.5 -18l15 -21.5z" />
    <glyph glyph-name="quotesingle" unicode="'" horiz-adv-x="219" 
d="M96 460l-14 126v104h56v-104l-14 -126h-28z" />
    <glyph glyph-name="parenleft" unicode="(" horiz-adv-x="354" 
d="M141 239c0 -102 15.333 -186.002 46 -252.002s77.667 -117.667 141 -155v-44c-45.333 20 -84.333 47.167 -117 81.5s-57.5 72.5 -74.5 114.5s-29.333 83.833 -37 125.5s-11.5 84.834 -11.5 129.501s3.83301 87.834 11.5 129.501s20 83.5 37 125.5
s41.833 80.167 74.5 114.5s71.667 61.5 117 81.5v-44c-63.333 -37.333 -110.333 -89 -141 -155s-46 -150 -46 -252z" />
    <glyph glyph-name="parenright" unicode=")" horiz-adv-x="354" 
d="M213 239c0 102 -15.333 186.002 -46 252.002s-77.667 117.667 -141 155v44c45.333 -20 84.333 -47.167 117 -81.5s57.5 -72.5 74.5 -114.5s29.333 -83.833 37 -125.5s11.5 -84.834 11.5 -129.501s-3.83301 -87.834 -11.5 -129.501s-20 -83.5 -37 -125.5
s-41.833 -80.167 -74.5 -114.5s-71.667 -61.5 -117 -81.5v44c63.333 37.333 110.333 89 141 155s46 150 46 252z" />
    <glyph glyph-name="asterisk" unicode="*" horiz-adv-x="490" 
d="M188 342l-45.001 -59.998l-43 33l43 61c12.667 5.33301 23.834 13.666 33.501 24.999s25.834 32.666 48.501 63.999c-56.667 18.667 -95.667 26 -117 22l-73 24l18 53l71 -23c9.33301 -10 21.333 -18.5 36 -25.5s39 -16.5 73 -28.5c-2 34 -4.33301 58.667 -7 74
c-2.66699 18.667 -6.33398 33.334 -11.001 44.001v74h60v-74c-6 -12.667 -10 -27.334 -12 -44.001c-3.33301 -18 -5.33301 -42.667 -6 -74c56 19.333 92.333 37.333 109 54l71 23l18 -53l-74 -24c-18.667 5.33301 -57 -2 -115 -22
c34.667 -52.667 61.334 -82.334 80.001 -89.001l44 -61l-44 -33l-44 60c-1.33301 14.667 -5.83301 28.834 -13.5 42.501s-22.167 34.834 -43.5 63.501l-14.5 -19.5c-6.33301 -8.33301 -10.833 -14.5 -13.5 -18.5l-10.5 -16c-4.33301 -6.66699 -7.5 -12.334 -9.5 -17.001
s-3.83301 -10 -5.5 -16s-2.83398 -12.333 -3.50098 -19z" />
    <glyph glyph-name="plus" unicode="+" horiz-adv-x="667" 
d="M356 343h240v-45h-240v-240h-45v240h-240v45h240v240h45v-240z" />
    <glyph glyph-name="comma" unicode="," horiz-adv-x="250" 
d="M97 0v93h56v-109c0 -71.333 -21.667 -108 -65 -110v36c13.333 0 22 6 26 18s6.66699 36 8 72h-25z" />
    <glyph glyph-name="hyphen" unicode="-" horiz-adv-x="344" 
d="M34 214v45h275v-45h-275z" />
    <glyph glyph-name="period" unicode="." horiz-adv-x="250" 
d="M97 0v93h56v-93h-56z" />
    <glyph glyph-name="slash" unicode="/" horiz-adv-x="281" 
d="M234 679h47l-234 -693h-47z" />
    <glyph glyph-name="zero" unicode="0" horiz-adv-x="531" 
d="M266 -9c-72 0 -126.5 29.667 -163.5 89s-55.5 146 -55.5 260c0 114.667 18.5 201.667 55.5 261s91.5 89 163.5 89c71.333 0 125.666 -29.667 162.999 -89s56 -146.333 56 -261c0 -114 -18.667 -200.667 -56 -260s-91.666 -89 -162.999 -89zM266 33
c56 0 98.001 27.167 126.001 81.5s42 129.833 42 226.5c0 99.333 -14.5 175.333 -43.5 228s-70.5 79 -124.5 79c-54.667 0 -96.334 -26.333 -125.001 -79s-43 -128.667 -43 -228c0 -205.333 56 -308 168 -308z" />
    <glyph glyph-name="one" unicode="1" horiz-adv-x="531" 
d="M148 0v45h96v589h-96v45h148v-634h96v-45h-244z" />
    <glyph glyph-name="two" unicode="2" horiz-adv-x="531" 
d="M460 211l-5.99805 -210.998h-399c-3.33301 39.333 5.66699 83.5 27 132.5s50 91.5 86 127.5c25.333 25.333 59.666 52.166 102.999 80.499s72 49.5 86 63.5c28.667 28.667 43 65 43 109c0 39.333 -12.333 71.666 -37 96.999s-56.334 38 -95.001 38
c-51.333 0 -89.666 -16.5 -114.999 -49.5s-37.333 -78.833 -36 -137.5h-46c-2.66699 71.333 14.166 127.333 50.499 168s84.833 61 145.5 61c56 0 100.667 -16.167 134 -48.5s50 -75.833 50 -130.5c0 -55.333 -17.333 -100.333 -52 -135
c-13.333 -13.333 -43.5 -35.333 -90.5 -66s-83.167 -58.667 -108.5 -84c-32 -32 -55.667 -65.833 -71 -101.5s-23 -62.167 -23 -79.5h305l5 166h44z" />
    <glyph glyph-name="three" unicode="3" horiz-adv-x="531" 
d="M39 209l47.001 -0.000976562c6 -59.333 25.5 -103.5 58.5 -132.5s71.5 -43.5 115.5 -43.5c41.333 0 78.833 13 112.5 39s50.5 64.667 50.5 116c0 30 -6.5 55.833 -19.5 77.5s-29.667 37.334 -50 47.001s-42.666 16.5 -66.999 20.5s-47.5 3.33301 -69.5 -2v45
c48.667 -3.33301 88.5 7.66699 119.5 33s46.5 61.333 46.5 108c0 38 -12.167 69.333 -36.5 94s-55.166 37 -92.499 37c-42 0 -73.667 -13 -95 -39s-32.333 -60 -33 -102h-48c0.666992 58 17.5 103 50.5 135s75.5 48 127.5 48c51.333 0 93.833 -16.5 127.5 -49.5
s50.5 -74.5 50.5 -124.5c0 -75.333 -36.667 -127 -110 -155v-2c41.333 -6 76.666 -23.167 105.999 -51.5s44 -68.5 44 -120.5c0 -56.667 -20.167 -103.5 -60.5 -140.5s-91.833 -55.5 -154.5 -55.5s-114.334 20.167 -155.001 60.5s-62.334 92.833 -65.001 157.5z" />
    <glyph glyph-name="four" unicode="4" horiz-adv-x="531" 
d="M255 0v41h76v158h-262c-4.66699 16.667 -13 30 -25 40l287 446h45v-446h110v-40h-110v-158h60v-41h-181zM331 239v379h-2l-239 -379h241z" />
    <glyph glyph-name="five" unicode="5" horiz-adv-x="531" 
d="M49 191h49.999c6.66699 -48 23.5 -86.333 50.5 -115s63.833 -43 110.5 -43c47.333 0 87.5 16.5 120.5 49.5s49.5 78.167 49.5 135.5c0 52 -14.833 94 -44.5 126s-68.167 48 -115.5 48c-58.667 0 -109 -28 -151 -84c-9.33301 9.33301 -22.666 17.333 -39.999 24l31 347
h330v-144h-46v94h-243l-24 -258l2 -2c41.333 43.333 92 65 152 65c57.333 0 105 -20.5 143 -61.5s57 -92.5 57 -154.5c0 -39.333 -7 -74.333 -21 -105s-32.333 -54.5 -55 -71.5s-46.167 -29.667 -70.5 -38s-48.833 -12.5 -73.5 -12.5c-58 0 -106.667 18.5 -146 55.5
s-61.333 85.167 -66 144.5z" />
    <glyph glyph-name="six" unicode="6" horiz-adv-x="531" 
d="M466 502l-50.002 0.00195312c-1.33301 47.333 -13 83.5 -35 108.5s-52.667 37.5 -92 37.5c-40.667 0 -74 -13.333 -100 -40s-44.333 -61.167 -55 -103.5s-17 -94.833 -19 -157.5l2 -2c48.667 57.333 106.334 86 173.001 86c54.667 0 99.667 -20 135 -60
s53 -91.333 53 -154c0 -66.667 -18.667 -121 -56 -163s-85.666 -63 -144.999 -63c-141.333 0 -212 107 -212 321c0 46 3.16699 89.167 9.5 129.5s17 80.166 32 119.499s37.667 70.666 68 93.999s66.5 35 108.5 35c55.333 0 98.833 -16.833 130.5 -50.5
s49.167 -79.5 52.5 -137.5zM114.998 294.002c0 -82 13.5 -146 40.5 -192s67.5 -69 121.5 -69c45.333 0 81.666 16 108.999 48s41 77 41 135c0 47.333 -12.167 88 -36.5 122s-60.166 51 -107.499 51c-28.667 0 -58 -8.5 -88 -25.5s-56.667 -40.167 -80 -69.5z" />
    <glyph glyph-name="seven" unicode="7" horiz-adv-x="531" 
d="M137 0l0.000976562 45h85c-7.33301 84.667 5 182.167 37 292.5s82 207.5 150 291.5h-299v-101h-46v151h396v-45c-66.667 -89.333 -115.834 -185.833 -147.501 -289.5s-44.5 -203.5 -38.5 -299.5h80v-45h-217z" />
    <glyph glyph-name="eight" unicode="8" horiz-adv-x="531" 
d="M183 359v1c-36.667 7.33301 -65.667 24.833 -87 52.5s-32 60.834 -32 99.501c0 54 19 97.167 57 129.5s86.333 48.5 145 48.5c58 0 106 -16.833 144 -50.5s57 -76.167 57 -127.5c0 -38.667 -10.667 -71.834 -32 -99.501s-50.333 -45.167 -87 -52.5v-2
c44 -10 78.5 -30 103.5 -60s37.5 -66.667 37.5 -110c0 -57.333 -20.833 -104.5 -62.5 -141.5s-95.167 -55.5 -160.5 -55.5s-119 18.5 -161 55.5s-63 84.167 -63 141.5c0 42.667 12.5 79.167 37.5 109.5s59.5 50.833 103.5 61.5zM266 33c50 0 91.167 14.166 123.5 42.499
s48.5 66.833 48.5 115.5c0 40 -14.167 74.5 -42.5 103.5s-71.5 43.5 -129.5 43.5c-53.333 0 -95.5 -13.167 -126.5 -39.5s-46.5 -62.166 -46.5 -107.499c0 -46 15.167 -83.833 45.5 -113.5s72.833 -44.5 127.5 -44.5zM266 377.999c47.333 0 84.667 12 112 36
s41 56.333 41 97c0 48 -16 82.833 -48 104.5s-67 32.5 -105 32.5c-45.333 0 -82.333 -12.667 -111 -38s-43 -58.333 -43 -99c0 -41.333 13.833 -73.833 41.5 -97.5s65.167 -35.5 112.5 -35.5z" />
    <glyph glyph-name="nine" unicode="9" horiz-adv-x="531" 
d="M65 179l50.002 -0.00195312c1.33301 -47.333 13 -83.5 35 -108.5s52.667 -37.5 92 -37.5c40.667 0 74 13.333 100 40s44.333 61.167 55 103.5s17 94.833 19 157.5l-2 2c-48.667 -57.333 -106.334 -86 -173.001 -86c-54.667 0 -99.667 20 -135 60s-53 91.333 -53 154
c0 66.667 18.667 121 56 163s85.666 63 144.999 63c141.333 0 212 -107 212 -321c0 -46 -3.16699 -89.167 -9.5 -129.5s-17 -80.166 -32 -119.499s-37.667 -70.666 -68 -93.999s-66.5 -35 -108.5 -35c-55.333 0 -98.833 16.833 -130.5 50.5s-49.167 79.5 -52.5 137.5z
M416.002 386.998c0 82 -13.5 146 -40.5 192s-67.5 69 -121.5 69c-45.333 0 -81.666 -16 -108.999 -48s-41 -77 -41 -135c0 -47.333 12.167 -88 36.5 -122s60.166 -51 107.499 -51c28.667 0 58 8.5 88 25.5s56.667 40.167 80 69.5z" />
    <glyph glyph-name="colon" unicode=":" horiz-adv-x="250" 
d="M97 380v93h56v-93h-56zM97 0v93h56v-93h-56z" />
    <glyph glyph-name="semicolon" unicode=";" horiz-adv-x="250" 
d="M97 0v93h56v-109c0 -71.333 -21.667 -108 -65 -110v36c13.333 0 22 6 26 18s6.66699 36 8 72h-25zM97 380v93h56v-93h-56z" />
    <glyph glyph-name="less" unicode="&#x3c;" horiz-adv-x="667" 
d="M132 321l463 -193v-50l-524 223v40l524 223v-50z" />
    <glyph glyph-name="equal" unicode="=" horiz-adv-x="667" 
d="M71 458h525v-45h-525v45zM71 231h525v-45h-525v45z" />
    <glyph glyph-name="greater" unicode="&#x3e;" horiz-adv-x="667" 
d="M535 321l-463 193v50l524 -223v-40l-524 -223v50z" />
    <glyph glyph-name="question" unicode="?" horiz-adv-x="448" 
d="M189 184l-18 192.002l7 3c20 -4.66699 40.5 -5.33398 61.5 -2.00098s40.167 9 57.5 17s31.5 21.667 42.5 41s16.5 43.333 16.5 72c0 39.333 -13.333 72.166 -40 98.499s-60.667 39.5 -102 39.5s-74.5 -12.833 -99.5 -38.5s-37.5 -59.5 -37.5 -101.5h-47
c0 54.667 17 99.167 51 133.5s78.667 51.5 134 51.5s101 -17.5 137 -52.5s54 -79.5 54 -133.5c0 -46.667 -15.667 -88 -47 -124s-76 -53 -134 -51l-12 -145h-24zM227 93.002v-93h-56v93h56z" />
    <glyph glyph-name="at" unicode="@" horiz-adv-x="802" 
d="M559 495l61.001 -0.000976562l-83 -392c-4.66699 -20.667 -5.66699 -35.667 -3 -45s10 -14 22 -14c40 0 81.833 27.167 125.5 81.5s65.5 120.166 65.5 197.499c0 28 -2.83301 55.5 -8.5 82.5s-16.167 55 -31.5 84s-34.833 54.5 -58.5 76.5s-55.167 40 -94.5 54
s-84 21 -134 21c-111.333 0 -202.5 -36.5 -273.5 -109.5s-106.5 -166.833 -106.5 -281.5c0 -113.333 35.5 -205 106.5 -275s163.833 -105 278.5 -105c142.667 0 252 51 328 153h50c-36.667 -60 -87.5 -107 -152.5 -141s-140.5 -51 -226.5 -51
c-126.667 0 -229 38.667 -307 116s-117 178.666 -117 303.999c0 58 9.33301 112.833 28 164.5s45.167 97.334 79.5 137.001s78.833 71.167 133.5 94.5s115.334 35 182.001 35c62 0 117.167 -10.5 165.5 -31.5s86.5 -48.833 114.5 -83.5s49 -72.5 63 -113.5
s21 -83.5 21 -127.5c0 -49.333 -8.33301 -95.166 -25 -137.499s-37.834 -76.833 -63.501 -103.5s-52.834 -47.5 -81.501 -62.5s-56 -22.5 -82 -22.5c-50.667 0 -68.667 30 -54 90l-2 2c-47.333 -61.333 -102.666 -92 -165.999 -92c-48.667 0 -89 19.5 -121 58.5
s-48 88.167 -48 147.5c0 42.667 8.66699 86.334 26 131.001s45.666 84.167 84.999 118.5s85.333 51.5 138 51.5c65.333 0 115 -31.333 149 -94zM519.001 325.999c0 40 -11.6699 73.002 -35.0029 99.002s-53.333 39 -90 39c-31.333 0 -59.666 -9.33301 -84.999 -28
s-45.166 -42 -59.499 -70s-25.166 -56.333 -32.499 -85s-11 -54.667 -11 -78c0 -44.667 11.833 -81.834 35.5 -111.501s53.5 -44.5 89.5 -44.5s69 16.167 99 48.5s52.333 69.666 67 111.999s22 81.833 22 118.5z" />
    <glyph glyph-name="A" unicode="A" horiz-adv-x="656" 
d="M63 45l204 589h-85v45h292v-45h-85l207 -589h84v-45h-225v45h85l-75 213h-274l-73 -213h89v-45h-230v45h86zM207 303h243l-118 344h-7z" />
    <glyph glyph-name="B" unicode="B" horiz-adv-x="563" 
d="M17 0v45h87v589h-87v45h271c37.333 0 69.666 -5 96.999 -15s48.333 -23.667 63 -41s25.334 -35.5 32.001 -54.5s10 -39.5 10 -61.5c0 -71.333 -33.333 -120 -100 -146v-2c90 -25.333 135 -80.333 135 -165c0 -22 -3.5 -43.333 -10.5 -64s-18.5 -41.167 -34.5 -61.5
s-40.167 -36.833 -72.5 -49.5s-70.5 -19 -114.5 -19h-276zM160 45h130c58.667 0 103.167 13.667 133.5 41s45.5 62 45.5 104c0 41.333 -14.667 75.333 -44 102s-76 40 -140 40h-125v-287zM160 377l114 0.000976562c50.667 0 90 12.167 118 36.5s42 55.166 42 92.499
c0 33.333 -11.667 63 -35 89s-62.333 39 -117 39h-122v-257z" />
    <glyph glyph-name="C" unicode="C" horiz-adv-x="750" 
d="M673 248l44 -24.998c-22.667 -74.667 -61.5 -132.167 -116.5 -172.5s-121.833 -60.5 -200.5 -60.5c-100.667 0 -182.167 32.167 -244.5 96.5s-93.5 148.166 -93.5 251.499c0 109.333 32.333 195.333 97 258s143 94 235 94c51.333 0 99.166 -10.5 143.499 -31.5
s80.5 -50.167 108.5 -87.5h2v108h46v-217h-47c-9.33301 55.333 -38.666 99 -87.999 131s-103 48 -161 48c-82 0 -149.167 -28 -201.5 -84s-78.5 -127.667 -78.5 -215c0 -88.667 26.667 -161.334 80 -218.001s121.333 -85 204 -85c130 0 220.333 69.667 271 209z" />
    <glyph glyph-name="D" unicode="D" horiz-adv-x="708" 
d="M9 0l0.00195312 45.002h94v589h-94v45h270c65.333 0 121.166 -6.33301 167.499 -19s85.833 -35.334 118.5 -68.001c63.333 -63.333 95 -145.333 95 -246c0 -110.667 -33.333 -199.334 -100 -266.001c-28.667 -28.667 -64.834 -49.167 -108.501 -61.5
s-99.167 -18.5 -166.5 -18.5h-276zM159.002 45.002l128.001 0.000976562c110 0 189 24 237 72c53.333 53.333 80 129 80 227c0 90 -25.667 160.667 -77 212c-29.333 29.333 -63.333 49.666 -102 60.999s-85.334 17 -140.001 17h-126v-589z" />
    <glyph glyph-name="E" unicode="E" horiz-adv-x="604" 
d="M15 0v45h87v589h-87v45h544v-165h-46v120h-355v-264h282v-45h-282v-280h355v122h46v-167h-544z" />
    <glyph glyph-name="F" unicode="F" horiz-adv-x="531" 
d="M15 0v45h88v589h-88v45h516v-166h-45v121h-327v-262h250v-45h-250v-282h90v-45h-234z" />
    <glyph glyph-name="G" unicode="G" horiz-adv-x="792" 
d="M500 261l0.00292969 44.998h238c-0.666992 -100.667 -33.5 -178.5 -98.5 -233.5s-144.5 -82.5 -238.5 -82.5c-102.667 0 -186.834 32.667 -252.501 98s-98.5 149 -98.5 251c0 100.667 32.167 184.334 96.5 251.001s145.166 100 242.499 100c52.667 0 102 -11 148 -33
s84 -53 114 -93h2v115h45v-222h-45c-13.333 53.333 -44.833 97.333 -94.5 132s-105.5 52 -167.5 52c-82.667 0 -150.834 -28 -204.501 -84s-80.5 -127.667 -80.5 -215c0 -88.667 27.667 -161.334 83 -218.001s126.333 -85 213 -85c30 0 59.833 4.16699 89.5 12.5
s58.167 20.833 85.5 37.5s50.333 39.834 69 69.501s30 63.834 34 102.501h-180z" />
    <glyph glyph-name="H" unicode="H" horiz-adv-x="688" 
d="M20 0v45h82v589h-82v45h224v-45h-86v-256h371v256h-87v45h226v-45h-83v-589h83v-45h-226v45h87v288h-371v-288h86v-45h-224z" />
    <glyph glyph-name="I" unicode="I" horiz-adv-x="281" 
d="M27 0v45h85v589h-85v45h227v-45h-86v-589h86v-45h-227z" />
    <glyph glyph-name="J" unicode="J" horiz-adv-x="271" 
d="M-68 -201l0.000976562 49.001c33.333 -7.33301 56.666 -11 69.999 -11c42 0 70.5 9 85.5 27s22.5 45.333 22.5 82v688h-102v45h255v-45h-97v-681c0 -58.667 -14.167 -100.834 -42.5 -126.501s-69.833 -38.5 -124.5 -38.5c-24 0 -46.333 3.66699 -67 11z" />
    <glyph glyph-name="K" unicode="K" horiz-adv-x="583" 
d="M14 0v45h89v589h-89v45h239v-45h-94v-589h94v-45h-239zM357 0v45h91l-282 312l282 277h-78v45h216v-45h-73l-275 -272l289 -317h72v-45h-242z" />
    <glyph glyph-name="L" unicode="L" horiz-adv-x="510" 
d="M16 0v45h92v589h-92v45h239v-45h-91v-589h280v225h53v-270h-481z" />
    <glyph glyph-name="M" unicode="M" horiz-adv-x="854" 
d="M19 0l-0.000976562 45.001h88v589h-88v45h174l210 -508c8.66699 -19.333 17 -43.333 25 -72h2c4.66699 21.333 11.334 42.666 20.001 63.999l211 516h175v-45h-84v-589h84v-45h-226v45h86v603h-2l-265 -648h-11l-262 648h-2v-603h81v-45h-216z" />
    <glyph glyph-name="N" unicode="N" horiz-adv-x="708" 
d="M10 0v45h91v589h-91v45h160l390 -599h2v554h-95v45h231v-45h-89v-643h-52l-407 624h-2v-570h96v-45h-234z" />
    <glyph glyph-name="O" unicode="O" horiz-adv-x="781" 
d="M50 340c0 101.333 32.001 185 96.001 251s145.667 99 245 99c98.667 0 180.167 -33 244.5 -99s96.5 -149.667 96.5 -251c0 -100.667 -31.833 -184.167 -95.5 -250.5s-143.167 -99.5 -238.5 -99.5c-102.667 0 -186.334 32.5 -251.001 97.5s-97 149.167 -97 252.5z
M106.001 340c0 -87.333 26.833 -159.333 80.5 -216s121.834 -85 204.501 -85s150.834 28.333 204.501 85s80.5 128.667 80.5 216s-26.833 159.333 -80.5 216s-121.834 85 -204.501 85s-150.834 -28.333 -204.501 -85s-80.5 -128.667 -80.5 -216z" />
    <glyph glyph-name="P" unicode="P" 
d="M16 0l0.000976562 45h90v589h-90v45h294c74.667 0 130.5 -18.833 167.5 -56.5s55.5 -85.167 55.5 -142.5c0 -56 -18.333 -103.333 -55 -142s-91.334 -58 -164.001 -58h-152v-235h92v-45h-238zM162.001 634v-309h128c124.667 0 187 50 187 150
c0 52 -13.667 91.5 -41 118.5s-74 40.5 -140 40.5h-134z" />
    <glyph glyph-name="Q" unicode="Q" horiz-adv-x="781" 
d="M327 -3l0.00195312 1.99805c-86 16.667 -153.667 55.667 -203 117s-74 136 -74 224c0 101.333 32 185 96 251s145.667 99 245 99c98.667 0 180.167 -33 244.5 -99s96.5 -149.667 96.5 -251c0 -96.667 -30.5 -178.167 -91.5 -244.5s-136.833 -100.833 -227.5 -103.5v-2
c15.333 -4 35 -12.667 59 -26s47 -23.666 69 -30.999s44.333 -8.66602 67 -3.99902l-18 -47c-33.333 -3.33301 -64 1.66699 -92 15s-55.5 27.5 -82.5 42.5s-54.167 22.5 -81.5 22.5c-32.667 0 -62.334 -9.66699 -89.001 -29l-21 30c27.333 22.667 61.666 34 102.999 34z
M106.002 342.998c0 -86 26.501 -158 79.501 -216s121.5 -87 205.5 -87c81.333 0 149.166 28.667 203.499 86s81.5 129.333 81.5 216s-27 158.167 -81 214.5s-122 84.5 -204 84.5s-150 -28.5 -204 -85.5s-81 -127.833 -81 -212.5z" />
    <glyph glyph-name="R" unicode="R" horiz-adv-x="573" 
d="M3 0v45h100v589h-100v45h333c58.667 0 104.167 -15.833 136.5 -47.5s48.5 -71.5 48.5 -119.5c0 -44.667 -13.5 -81.5 -40.5 -110.5s-65.5 -48.167 -115.5 -57.5l136 -299h87v-45h-126l-153 339h-150v-294h95v-45h-251zM159 384h141.001c110 0 165 42.333 165 127
c0 38 -12.833 68 -38.5 90s-60.834 33 -105.501 33h-162v-250z" />
    <glyph glyph-name="S" unicode="S" horiz-adv-x="542" 
d="M43 0l-0.00585938 232.998h46v-23c0 -46.667 19 -86.834 57 -120.501s83 -50.5 135 -50.5c46 0 84.333 13.333 115 40s46 61.334 46 104.001c0 27.333 -7.33301 50.5 -22 69.5s-33.667 33.5 -57 43.5s-49 18.833 -77 26.5s-56.167 16 -84.5 25
s-54.166 19.833 -77.499 32.5s-42.333 31 -57 55s-22 53 -22 87c0 47.333 18.5 87.166 55.5 119.499s84.5 48.5 142.5 48.5c35.333 0 68.5 -7 99.5 -21s56.167 -33.333 75.5 -58h2v68h45v-183h-45v14c0 34.667 -18 65.167 -54 91.5s-77.667 39.5 -125 39.5
c-41.333 0 -75.666 -11.333 -102.999 -34s-41 -51 -41 -85c0 -26.667 7.33301 -49 22 -67s33.834 -31.833 57.501 -41.5s49.667 -18.167 78 -25.5s56.833 -15.666 85.5 -24.999s54.834 -20.666 78.501 -33.999s42.834 -32.5 57.501 -57.5s22 -55.5 22 -91.5
c0 -54 -20.667 -99.167 -62 -135.5s-92.666 -54.5 -153.999 -54.5c-40 0 -77.333 8.83301 -112 26.5s-61 41.834 -79 72.501h-2v-89h-46z" />
    <glyph glyph-name="T" unicode="T" horiz-adv-x="573" 
d="M166 0v45h93v589h-196v-169h-46v214h540v-214h-46v169h-196v-589h93v-45h-242z" />
    <glyph glyph-name="U" unicode="U" horiz-adv-x="646" 
d="M90 634l-87.001 0.00292969v45h229v-45h-86v-436c0 -52.667 15.333 -92.334 46 -119.001s73.334 -40 128.001 -40c119.333 0 179 52.333 179 157v438h-86v45h229v-45h-87v-436c0 -34.667 -5.66699 -65 -17 -91s-25 -46.167 -41 -60.5s-35 -26 -57 -35
s-41.667 -14.833 -59 -17.5s-35 -4 -53 -4c-24.667 0 -48 2 -70 6s-43.5 11 -64.5 21s-39 22.667 -54 38s-27 35.166 -36 59.499s-13.5 52.166 -13.5 83.499v436z" />
    <glyph glyph-name="V" unicode="V" horiz-adv-x="656" 
d="M309 -7l-243 641h-88v45h230v-45h-85l214 -560l206 560h-83v45h219v-45h-88l-235 -641h-47z" />
    <glyph glyph-name="W" unicode="W" horiz-adv-x="948" 
d="M257 -7l-192 641h-85v45h226v-45h-84l161 -562h2l144 562h-80v45h256v-45h-82l153 -562h2l156 562h-87v45h220v-45h-86l-185 -641h-44l-179 652h-2l-168 -652h-46z" />
    <glyph glyph-name="X" unicode="X" horiz-adv-x="656" 
d="M14 0v45h94l187 297l-187 292h-94v45h239v-45h-81l151 -240l153 240h-84v45h228v-45h-90l-178 -283l195 -306h96v-45h-251v45h91l-160 254l-159 -254h89v-45h-239z" />
    <glyph glyph-name="Y" unicode="Y" horiz-adv-x="604" 
d="M183 0v45h94v261l-208 328h-88v45h242v-45h-89l176 -279l177 279h-88v45h224v-45h-82l-208 -328v-261h97v-45h-247z" />
    <glyph glyph-name="Z" unicode="Z" 
d="M27 0v45l416 589h-349v-120h-45v165h461v-45l-416 -589h381v130h46v-175h-494z" />
    <glyph glyph-name="bracketleft" unicode="[" horiz-adv-x="344" 
d="M169 634v-790h159v-45h-211v880h211v-45h-159z" />
    <glyph glyph-name="backslash" unicode="\" horiz-adv-x="281" 
d="M47 679l234 -693h-47l-234 693h47z" />
    <glyph glyph-name="bracketright" unicode="]" horiz-adv-x="344" 
d="M175 634h-159v45h211v-880h-211v45h159v790z" />
    <glyph glyph-name="asciicircum" unicode="^" horiz-adv-x="656" 
d="M328 690l219 -262l-32 -27l-187 225l-188 -225l-30 27z" />
    <glyph glyph-name="underscore" unicode="_" horiz-adv-x="500" 
d="M-6 -75h512v-50h-512v50z" />
    <glyph glyph-name="grave" unicode="`" horiz-adv-x="333" 
d="M202 536l-119 155h57l100 -155h-38z" />
    <glyph glyph-name="a" unicode="a" horiz-adv-x="510" 
d="M370 0l-0.00195312 68c-58.667 -50 -117 -75 -175 -75c-40 0 -74 13.667 -102 41s-42 60.333 -42 99c0 42.667 16.5 77.667 49.5 105s74.833 41 125.5 41c46 0 94 -13 144 -39v110c0 66 -42 99 -126 99c-72 0 -120.667 -27 -146 -81l-39 10
c18.667 38 42.834 65.5 72.501 82.5s68.5 25.5 116.5 25.5c58.667 0 102.334 -11.833 131.001 -35.5s43 -56.5 43 -98.5v-307h78v-45h-130zM369.998 112v86c-48.667 28 -93.667 42 -135 42c-38.667 0 -70.167 -10.167 -94.5 -30.5s-36.5 -46.833 -36.5 -79.5
c0 -28 9.83301 -51.167 29.5 -69.5s44.5 -27.5 74.5 -27.5c27.333 0 56.333 7.5 87 22.5s55.667 33.833 75 56.5z" />
    <glyph glyph-name="b" unicode="b" horiz-adv-x="615" 
d="M14 0l0.00195312 45h86v589h-86v45h138v-301h2c41.333 72 103.666 108 186.999 108c67.333 0 122.666 -22.667 165.999 -68s65 -103.333 65 -174c0 -72.667 -22 -132.667 -66 -180s-100 -71 -168 -71c-78.667 0 -140 33 -184 99h-2v-92h-138zM151.002 241
c0 -60.667 17.168 -110 51.501 -148s78.833 -57 133.5 -57c54 0 98 19.333 132 58s51 88.667 51 150c0 58.667 -16.833 106.5 -50.5 143.5s-76.834 55.5 -129.501 55.5c-54 0 -98.833 -19.167 -134.5 -57.5s-53.5 -86.5 -53.5 -144.5z" />
    <glyph glyph-name="c" unicode="c" horiz-adv-x="510" 
d="M438 146l42 -17.998c-17.333 -44.667 -44.166 -79.5 -80.499 -104.5s-77.833 -37.5 -124.5 -37.5c-68.667 0 -124.834 23 -168.501 69s-65.5 104.667 -65.5 176s21.667 130.666 65 177.999s97.333 71 162 71c66 0 116 -23 150 -69h2v62h43v-180h-43
c0 42 -14.667 75.833 -44 101.5s-64.666 38.5 -105.999 38.5c-52 0 -94.333 -18.333 -127 -55s-49 -84.334 -49 -143.001c0 -60.667 16.667 -109.5 50 -146.5s76.666 -55.5 129.999 -55.5c76 0 130.667 37.667 164 113z" />
    <glyph glyph-name="d" unicode="d" horiz-adv-x="594" 
d="M591 0l-137.998 0.000976562v92h-2c-43.333 -66 -104 -99 -182 -99c-67.333 0 -123 23.167 -167 69.5s-66 104.833 -66 175.5s22 129.667 66 177s98.667 71 164 71c39.333 0 75.166 -9.33301 107.499 -28s58.166 -45.334 77.499 -80.001h2v256h-92v45h144v-634h86v-45z
M454.002 239.001c0 57.333 -18 105.666 -54 144.999s-80.333 59 -133 59c-51.333 0 -94.5 -19.667 -129.5 -59s-52.5 -87.666 -52.5 -144.999c0 -58 17.5 -106.333 52.5 -145s78.833 -58 131.5 -58c54.667 0 99.167 19 133.5 57s51.5 86.667 51.5 146z" />
    <glyph glyph-name="e" unicode="e" 
d="M517 225h-424.999c0 -54.667 19.333 -101.167 58 -139.5s85.667 -57.5 141 -57.5c75.333 0 137 34.333 185 103l41 -19c-23.333 -39.333 -55.666 -70.166 -96.999 -92.499s-86.333 -33.5 -135 -33.5c-71.333 0 -130 23.5 -176 70.5s-69 106.833 -69 179.5
c0 73.333 22.5 133.333 67.5 180s102.833 70 173.5 70c69.333 0 125.666 -23.833 168.999 -71.5s65.666 -110.834 66.999 -189.501zM93.001 270h369.999c-8.66699 54.667 -29.5 97 -62.5 127s-74.167 45 -123.5 45c-48.667 0 -89.167 -15.333 -121.5 -46
s-53.166 -72.667 -62.499 -126z" />
    <glyph glyph-name="f" unicode="f" horiz-adv-x="250" 
d="M23 0v45h73v383h-73v45h73v87c0 43.333 12 75.833 36 97.5s51 32.5 81 32.5c28 0 51.833 -8.5 71.5 -25.5s32.834 -40.167 39.501 -69.5l-47 -7c-6.66699 20 -15.167 34.5 -25.5 43.5s-23.833 13.5 -40.5 13.5c-20.667 0 -36.334 -6.83301 -47.001 -20.5
s-16 -32.167 -16 -55.5v-96h93v-45h-93v-383h93v-45h-218z" />
    <glyph glyph-name="g" unicode="g" horiz-adv-x="594" 
d="M461 -17v116h-2c-18 -33.333 -43.5 -59.333 -76.5 -78s-69.833 -28 -110.5 -28c-66.667 0 -122.167 22.833 -166.5 68.5s-66.5 102.5 -66.5 170.5c0 69.333 22.833 128 68.5 176s101.167 72 166.5 72c80 0 141.667 -36 185 -108h2v101h140v-45h-88v-440
c0 -38.667 -7.83301 -72.667 -23.5 -102s-36 -51.5 -61 -66.5s-50.333 -26 -76 -33s-51.167 -10.5 -76.5 -10.5c-78 0 -139.333 22.333 -184 67l34 34c42 -36 93.667 -54 155 -54c20 0 39.667 2.5 59 7.5s38.5 13.167 57.5 24.5s34.333 28 46 50s17.5 48 17.5 78zM92 234
c0 -57.333 17.168 -104.5 51.501 -141.5s78.166 -55.5 131.499 -55.5s97.833 19 133.5 57s53.5 85.667 53.5 143c0 55.333 -18.167 102.166 -54.5 140.499s-80.5 57.5 -132.5 57.5s-95.5 -19.167 -130.5 -57.5s-52.5 -86.166 -52.5 -143.499z" />
    <glyph glyph-name="h" unicode="h" horiz-adv-x="542" 
d="M13 0l0.000976562 45h86v589h-86v45h138v-270c59.333 51.333 119 77 179 77c38 0 69 -10.5 93 -31.5s36 -52.167 36 -93.5v-316h77v-45h-213v45h84v305c0 59.333 -27.667 89 -83 89c-25.333 0 -53.833 -7.5 -85.5 -22.5s-60.834 -34.833 -87.501 -59.5v-312h78v-45h-216z
" />
    <glyph glyph-name="i" unicode="i" horiz-adv-x="250" 
d="M24 0v45h83v383h-83v45h135v-428h81v-45h-216zM78 650c0 10.667 4 20 12 28s17.333 12 28 12c11.333 0 21 -4 29 -12s12 -17.333 12 -28s-4.16699 -20.167 -12.5 -28.5s-17.833 -12.5 -28.5 -12.5s-20 4 -28 12s-12 17.667 -12 29z" />
    <glyph glyph-name="j" unicode="j" horiz-adv-x="240" 
d="M109 428l-87.001 0.00195312v45h139v-530c0 -58.667 -18.167 -99.334 -54.5 -122.001s-85.166 -30.334 -146.499 -23.001v45c52 -6 89.833 -1 113.5 15s35.5 49.333 35.5 100v470zM119.999 690.002c11.333 0 21 -4 29 -12s12 -17.333 12 -28
s-4.16699 -20.167 -12.5 -28.5s-17.833 -12.5 -28.5 -12.5s-20 4 -28 12s-12 17.667 -12 29c0 10.667 4 20 12 28s17.333 12 28 12z" />
    <glyph glyph-name="k" unicode="k" horiz-adv-x="521" 
d="M13 0v45h87v589h-87v45h139v-428l249 175v2h-72v45h197v-45h-61l-249 -177l236 -206h83v-45h-103l-280 244v-199h87v-45h-226z" />
    <glyph glyph-name="l" unicode="l" horiz-adv-x="240" 
d="M9 0v45h85v589h-86v45h138v-634h85v-45h-222z" />
    <glyph glyph-name="m" unicode="m" horiz-adv-x="844" 
d="M15 0l-0.00292969 45.001h83v383h-83v45h135v-73c57.333 53.333 116.333 80 177 80c30.667 0 56.334 -7.33301 77.001 -22s35 -35.334 43 -62.001c61.333 56 122.666 84 183.999 84c38.667 0 68.834 -10.833 90.501 -32.5s32.5 -53.5 32.5 -95.5v-307h76v-45h-209v45h81
v302c0 57.333 -26 86 -78 86c-57.333 0 -114.666 -28.667 -171.999 -86v-302h78v-45h-211v45h81v302c0 57.333 -25.333 86 -76 86c-28 0 -55.167 -6.5 -81.5 -19.5s-57.166 -35.167 -92.499 -66.5v-302h78v-45h-213z" />
    <glyph glyph-name="n" unicode="n" horiz-adv-x="531" 
d="M7 0v45h87v383h-87v45h139v-73c64 53.333 123.333 80 178 80c38 0 68.833 -11 92.5 -33s35.5 -52 35.5 -90v-312h76v-45h-212v45h84v298c0 60 -26.333 90 -79 90c-26 0 -54.833 -7.66699 -86.5 -23s-61.167 -36 -88.5 -62v-303h77v-45h-216z" />
    <glyph glyph-name="o" unicode="o" 
d="M41 236c0 71.333 22.5 130.833 67.5 178.5s100.833 71.5 167.5 71.5c67.333 0 123.5 -24 168.5 -72s67.5 -107.333 67.5 -178s-22.5 -130 -67.5 -178s-101.167 -72 -168.5 -72c-66.667 0 -122.5 23.833 -167.5 71.5s-67.5 107.167 -67.5 178.5zM94 236
c0 -58.667 17.167 -107.167 51.5 -145.5s77.833 -57.5 130.5 -57.5s96.334 19.167 131.001 57.5s52 86.833 52 145.5s-17.333 107.167 -52 145.5s-78.334 57.5 -131.001 57.5s-96.167 -19.167 -130.5 -57.5s-51.5 -86.833 -51.5 -145.5z" />
    <glyph glyph-name="p" unicode="p" horiz-adv-x="594" 
d="M84 -167v594.999h-80v45h132v-100h2c18 33.333 43.333 59.5 76 78.5s68.667 28.5 108 28.5c65.333 0 120 -23.333 164 -70s66 -105 66 -175c0 -73.333 -21.667 -133.166 -65 -179.499s-99.333 -69.5 -168 -69.5c-84.667 0 -145 36 -181 108h-2v-261h86v-45h-224v45h86z
M134 234.999c0 -59.333 17.332 -107.833 51.999 -145.5s79.334 -56.5 134.001 -56.5c54 0 98 18.667 132 56s51 86 51 146c0 58.667 -17.667 106.667 -53 144s-80.333 56 -135 56c-52.667 0 -96 -18.667 -130 -56s-51 -85.333 -51 -144z" />
    <glyph glyph-name="q" unicode="q" horiz-adv-x="594" 
d="M509 -167l87 0.000976562v-45h-224v45h85v261h-2c-35.333 -72 -95.333 -108 -180 -108c-68.667 0 -124.667 23.167 -168 69.5s-65 105.833 -65 178.5c0 70 21.833 128.5 65.5 175.5s98.5 70.5 164.5 70.5c38.667 0 74.167 -9.33301 106.5 -28
s57.833 -44.334 76.5 -77.001h2v98h139v-45h-87v-595zM459 235.001c0 58.667 -16.832 106.667 -50.499 144s-76.834 56 -129.501 56c-55.333 0 -100.5 -18.833 -135.5 -56.5s-52.5 -86.167 -52.5 -145.5s17 -107.5 51 -144.5s78 -55.5 132 -55.5s98.333 19 133 57
s52 86.333 52 145z" />
    <glyph glyph-name="r" unicode="r" horiz-adv-x="396" 
d="M22 0l-0.00195312 45.001h90v383h-90v45h142v-116h2c16.667 42.667 43.834 74.667 81.501 96s82.834 30.333 135.501 27v-50c-44 0.666992 -80.667 -3 -110 -11s-51.833 -20.833 -67.5 -38.5s-26.5 -37.334 -32.5 -59.001s-9 -48.5 -9 -80.5v-196h97v-45h-239z" />
    <glyph glyph-name="s" unicode="s" horiz-adv-x="448" 
d="M38 0l-0.000976562 164.002h46c0 -39.333 13.5 -71 40.5 -95s62.5 -36 106.5 -36c38.667 0 70.334 8.83301 95.001 26.5s37 40.167 37 67.5c0 26 -10.333 45.667 -31 59s-45.5 22.666 -74.5 27.999s-58.167 11.166 -87.5 17.499s-54.333 19.166 -75 38.499
s-31 46.333 -31 81c0 36.667 14.167 67.334 42.5 92.001s63.5 37 105.5 37c56 0 99.333 -20.667 130 -62h2v55h44v-155h-44c-1.33301 34.667 -14.166 63.167 -38.499 85.5s-54.833 33.5 -91.5 33.5c-34 0 -59.667 -9 -77 -27s-26 -38 -26 -60
c0 -20 7.33301 -36.167 22 -48.5s33.167 -20.5 55.5 -24.5s46.333 -9 72 -15s49.667 -12.5 72 -19.5s40.833 -20 55.5 -39s22 -43.167 22 -72.5c0 -42 -16.333 -75.5 -49 -100.5s-76.334 -37.5 -131.001 -37.5c-66.667 0 -114.667 22 -144 66h-2v-59h-46z" />
    <glyph glyph-name="t" unicode="t" horiz-adv-x="260" 
d="M87 428l-84 -0.000976562v45h84v106l52 41v-147h99v-45h-99v-330c0 -15.333 1 -27 3 -35s6.33301 -14.667 13 -20s16.5 -7.66602 29.5 -6.99902s30.833 3.66699 53.5 9v-45c-45.333 -14.667 -81.833 -15.667 -109.5 -3s-41.5 39 -41.5 79v352z" />
    <glyph glyph-name="u" unicode="u" horiz-adv-x="542" 
d="M401 0v68.001c-58 -50 -120 -75 -186 -75c-36.667 0 -65.667 10.667 -87 32s-32 49.666 -32 84.999v318h-83v45h135v-350c0 -55.333 25.667 -83 77 -83c28 0 57.833 7.66699 89.5 23s60.5 36.333 86.5 63v302h-83v45h135v-428h81v-45h-133z" />
    <glyph glyph-name="v" unicode="v" horiz-adv-x="521" 
d="M243 -7l-166.999 435h-78v45h196v-45h-65l95 -255c20 -54 33.667 -96.667 41 -128h2c11.333 40.667 21.666 74 30.999 100l104 283h-66v45h187v-45h-72l-160 -435h-48z" />
    <glyph glyph-name="w" unicode="w" horiz-adv-x="750" 
d="M200 -7l-135 434.998h-62v45h166v-45h-55l75 -245c18.667 -61.333 30 -104.666 34 -129.999h2c7.33301 42 18.333 85.333 33 130l78 245h-55v45h179v-45h-53l67 -213c20 -65.333 33.667 -120.666 41 -165.999h2c1.33301 24.667 14.333 75 39 151l76 228h-62v45h177v-45
h-65l-141 -435h-48l-122 411h-2l-118 -411h-51z" />
    <glyph glyph-name="x" unicode="x" horiz-adv-x="531" 
d="M18 0v45h64l152 199l-147 184h-61v45h176v-45h-56l117 -147l115 147h-51v45h174v-45h-64l-144 -184l161 -199h60v-45h-176v45h58l-133 163l-123 -163h62v-45h-184z" />
    <glyph glyph-name="y" unicode="y" horiz-adv-x="531" 
d="M184 -167l66 180l-170 415h-78v45h206v-45h-77l144 -352l133 352h-75v45h197v-45h-72l-242 -640h-132v45h100z" />
    <glyph glyph-name="z" unicode="z" horiz-adv-x="479" 
d="M45 0v45l333 383h-268v-123h-41v168h366v-45l-333 -383h291v128h42v-173h-390z" />
    <glyph glyph-name="braceleft" unicode="{" horiz-adv-x="333" 
d="M48 266c32 0 55.667 13 71 39s23 60.667 23 104v120c0 54.667 13.667 94.334 41 119.001s61.333 35.334 102 32.001v-54c-26 -0.666992 -44.5 -3.83398 -55.5 -9.50098s-19.167 -17.5 -24.5 -35.5s-8 -47 -8 -87v-69c0 -51.333 -7.33301 -92.333 -22 -123
s-39.334 -53.334 -74.001 -68.001c34.667 -14.667 59.334 -37.334 74.001 -68.001s22 -71.667 22 -123v-69c0 -40 2.66699 -69 8 -87s13.5 -29.833 24.5 -35.5s29.5 -8.83398 55.5 -9.50098v-54c-40.667 -3.33301 -74.667 7.33398 -102 32.001s-41 64.334 -41 119.001v120
c0 43.333 -7.66699 78 -23 104s-39 39 -71 39v64z" />
    <glyph glyph-name="bar" unicode="|" horiz-adv-x="496" 
d="M222 679h52v-903h-52v903z" />
    <glyph glyph-name="braceright" unicode="}" horiz-adv-x="333" 
d="M285 266v-64c-32 0 -55.667 -13 -71 -39s-23 -60.667 -23 -104v-120c0 -54.667 -13.667 -94.334 -41 -119.001s-61.333 -35.334 -102 -32.001v54c26 0.666992 44.5 3.83398 55.5 9.50098s19.167 17.5 24.5 35.5s8 47 8 87v69c0 51.333 7.33301 92.333 22 123
s39.334 53.334 74.001 68.001c-34.667 14.667 -59.334 37.334 -74.001 68.001s-22 71.667 -22 123v69c0 40 -2.66699 69 -8 87s-13.5 29.833 -24.5 35.5s-29.5 8.83398 -55.5 9.50098v54c40.667 3.33301 74.667 -7.33398 102 -32.001s41 -64.334 41 -119.001v-120
c0 -43.333 7.66699 -78 23 -104s39 -39 71 -39z" />
    <glyph glyph-name="asciitilde" unicode="~" horiz-adv-x="656" 
d="M66 291l0.000976562 54c54 39.333 100.667 59 140 59c26.667 0 68.667 -12.667 126 -38c58.667 -26 98.667 -39 120 -39c18.667 0 37.667 4.5 57 13.5s46.666 25.833 81.999 50.5v-54c-55.333 -39.333 -101 -59 -137 -59c-28 0 -70.667 13 -128 39
c-56 25.333 -96 38 -120 38c-20.667 0 -40.167 -4.16699 -58.5 -12.5s-45.5 -25.5 -81.5 -51.5z" />
    <glyph glyph-name="uni00A0" unicode="&#xa0;" horiz-adv-x="250" 
 />
    <glyph glyph-name="exclamdown" unicode="&#xa1;" horiz-adv-x="250" 
d="M97 380v93h56v-93h-56zM99 -206v212l12 287h28l12 -287v-212h-52z" />
    <glyph glyph-name="cent" unicode="&#xa2;" horiz-adv-x="510" 
d="M134 -212l55.002 212c-44.667 16 -80.5 45 -107.5 87s-40.5 90 -40.5 144c0 80 27.667 144.833 83 194.5s117.666 65.5 186.999 47.5l50 196h33l-52 -203c32.667 -11.333 58 -29.666 76 -54.999h2v62h43v-180h-43c-2.66699 62.667 -32.334 105.667 -89.001 129l-100 -385
c98.667 -16.667 167.667 19.666 207 108.999l42 -18c-19.333 -49.333 -52 -87.5 -98 -114.5s-100 -34.167 -162 -21.5l-52 -204h-34zM202.002 47l98.001 383c-66 8 -116.833 -8.16699 -152.5 -48.5s-53.5 -88.833 -53.5 -145.5c0 -42.667 10.167 -81.5 30.5 -116.5
s46.166 -59.167 77.499 -72.5z" />
    <glyph glyph-name="sterling" unicode="&#xa3;" horiz-adv-x="521" 
d="M54 313l0.00195312 44.998h120c-34.667 74 -52 133.333 -52 178c0 46 15.5 83.167 46.5 111.5s71.5 42.5 121.5 42.5c52.667 0 93.834 -14.167 123.501 -42.5s45.167 -68.833 46.5 -121.5h-49c-1.33301 38.667 -12.5 68.667 -33.5 90s-50.167 32 -87.5 32
c-34.667 0 -62.834 -10 -84.501 -30s-32.5 -45.667 -32.5 -77c0 -37.333 17.333 -98.333 52 -183h131v-45h-116c24 -64 28.333 -130.667 13 -200l52.5 -44.5c11 -9 23.833 -17.167 38.5 -24.5s28.667 -11 42 -11c24.667 0 43 9.33301 55 28s18.333 48.334 19 89.001h41
c0.666992 -49.333 -9.33301 -88.166 -30 -116.499s-48.334 -42.5 -83.001 -42.5c-44 0 -93.333 27.333 -148 82c-25.333 -54.667 -61.333 -82 -108 -82c-26 0 -47.333 8.33301 -64 25s-25 37.667 -25 63s9 46.5 27 63.5s41 25.5 69 25.5
c25.333 0 51.666 -9.33301 78.999 -28c10.667 42 1 99.667 -29 173h-135zM209.002 99.998c-20 21.333 -42.668 32 -68.001 32c-17.333 0 -31.833 -5.33301 -43.5 -16s-17.5 -23.667 -17.5 -39c0 -14 4.83301 -25.833 14.5 -35.5s21.834 -14.5 36.501 -14.5
c32 0 58 24.333 78 73z" />
    <glyph glyph-name="currency" unicode="&#xa4;" horiz-adv-x="667" 
d="M533 572l31.001 -33.001l-63 -63c32 -39.333 48 -84.333 48 -135c0 -18.667 -3.83301 -41 -11.5 -67s-19.834 -49 -36.501 -69l63 -62l-31 -32l-64 62c-41.333 -31.333 -87 -47 -137 -47c-48 0 -92.667 15.667 -134 47l-62 -62l-32 32l61 62
c-31.333 42.667 -47 88.334 -47 137.001c0 46 15.667 90.667 47 134l-61 63l32 33l62 -64c47.333 32.667 93 49 137 49c46 0 90.667 -16.333 134 -49zM333.001 509.999c-46.667 0 -86.334 -16.333 -119.001 -49s-49 -72.334 -49 -119.001s16.333 -86.5 49 -119.5
s72.334 -49.5 119.001 -49.5s86.5 16.5 119.5 49.5s49.5 72.833 49.5 119.5s-16.5 86.334 -49.5 119.001s-72.833 49 -119.5 49z" />
    <glyph glyph-name="yen" unicode="&#xa5;" 
d="M211 516h147l58 118h-88v45h224v-45h-82l-57 -118h139v-45h-163l-57 -120h220v-45h-248v-261h97v-45h-247v45h94v261h-248v45h219l-55 120h-164v45h147l-59 118h-88v45h242v-45h-89zM335 471h-107l53 -116z" />
    <glyph glyph-name="brokenbar" unicode="&#xa6;" horiz-adv-x="496" 
d="M222 -224v365h52v-365h-52zM222 315v364h52v-364h-52z" />
    <glyph glyph-name="section" unicode="&#xa7;" horiz-adv-x="438" 
d="M53 -39h49c0 -38 12 -69.167 36 -93.5s55 -36.5 93 -36.5c37.333 0 67.666 11.167 90.999 33.5s35 49.166 35 80.499c0 24 -8.5 45.333 -25.5 64s-38 33.5 -63 44.5l-82 36.5c-29.667 13.333 -57 26.666 -82 39.999s-46 32 -63 56s-25.5 51.333 -25.5 82
c0 26.667 6.5 51 19.5 73s35.167 45.667 66.5 71c-44 31.333 -66 73.666 -66 126.999c0 43.333 16.167 79.333 48.5 108s72.833 43 121.5 43c28 0 54.5 -4.5 79.5 -13.5s48 -26.667 69 -53s32.167 -59.833 33.5 -100.5h-47c-2 40.667 -15.833 71.667 -41.5 93
s-57.167 32 -94.5 32c-35.333 0 -64.333 -10.167 -87 -30.5s-34 -45.833 -34 -76.5c0 -26 8.33301 -49 25 -69s37.5 -35.667 62.5 -47l81 -37c29 -13.333 56 -26.333 81 -39s45.833 -30.5 62.5 -53.5s25 -49.833 25 -80.5c0 -27.333 -7.83301 -54.166 -23.5 -80.499
s-36.834 -48.166 -63.501 -65.499c45.333 -27.333 68 -68.666 68 -123.999c0 -47.333 -15.833 -85.333 -47.5 -114s-73.5 -43 -125.5 -43c-51.333 0 -93.666 16.167 -126.999 48.5s-49.666 73.833 -48.999 124.5zM300 90c48.667 32.667 73 72.333 73 119
c0 20 -3.16699 36.833 -9.5 50.5s-17.5 26 -33.5 37s-31.667 20 -47 27s-38.333 16.833 -69 29.5s-57 24.667 -79 36c-47.333 -31.333 -71 -69.333 -71 -114c0 -20.667 5 -39.167 15 -55.5s24.333 -30.5 43 -42.5s37.167 -22.167 55.5 -30.5l64.5 -28.5
c24.667 -10.667 44 -20 58 -28z" />
    <glyph glyph-name="dieresis" unicode="&#xa8;" horiz-adv-x="333" 
d="M253 646c9.33301 0 17.333 -3.33301 24 -10s10 -14.667 10 -24s-3.33301 -17.333 -10 -24s-14.667 -10 -24 -10s-17.333 3.33301 -24 10s-10 14.667 -10 24s3.33301 17.333 10 24s14.667 10 24 10zM80 646c9.33301 0 17.333 -3.33301 24 -10s10 -14.667 10 -24
s-3.33301 -17.333 -10 -24s-14.667 -10 -24 -10s-17.333 3.33301 -24 10s-10 14.667 -10 24s3.33301 17.333 10 24s14.667 10 24 10z" />
    <glyph glyph-name="copyright" unicode="&#xa9;" horiz-adv-x="802" 
d="M563 451l-46.999 -14c-22.667 54 -59.334 81 -110.001 81c-40.667 0 -73.667 -14.5 -99 -43.5s-38 -66.833 -38 -113.5c0 -51.333 12.167 -93.333 36.5 -126s56.166 -49 95.499 -49c58.667 0 99.334 33.333 122.001 100l44 -16c-12.667 -46 -34.667 -78.833 -66 -98.5
s-64 -29.5 -98 -29.5c-54.667 0 -99.5 20.667 -134.5 62s-52.5 92 -52.5 152c0 52.667 16.5 99.5 49.5 140.5s79.833 61.5 140.5 61.5c68 0 120.333 -35.667 157 -107zM401.001 728c103.333 0 191.333 -36.333 264 -109s109 -160.667 109 -264s-36.333 -191.333 -109 -264
s-160.667 -109 -264 -109s-191.333 36.333 -264 109s-109 160.667 -109 264s36.333 191.333 109 264s160.667 109 264 109zM400.001 29c90 0 166.833 31.833 230.5 95.5s95.5 140.5 95.5 230.5s-31.833 166.833 -95.5 230.5s-140.5 95.5 -230.5 95.5
s-166.833 -31.833 -230.5 -95.5s-95.5 -140.5 -95.5 -230.5s31.833 -166.833 95.5 -230.5s140.5 -95.5 230.5 -95.5z" />
    <glyph glyph-name="ordfeminine" unicode="&#xaa;" horiz-adv-x="333" 
d="M245 398l0.000976562 41c-40 -30 -77.667 -45 -113 -45c-26.667 0 -49 8.16699 -67 24.5s-27 36.5 -27 60.5c0 25.333 10.667 46.166 32 62.499s48.333 24.5 81 24.5c30.667 0 62 -8 94 -24v62c0 42 -27.333 63 -82 63c-46.667 0 -78.334 -16 -95.001 -48l-26 6
c24 43.333 64.667 65 122 65c40 0 69.167 -7.16699 87.5 -21.5s27.5 -37.166 27.5 -68.499v-175h50v-27h-84zM245.001 465v51.999c-30.667 16.667 -59.667 25 -87 25c-25.333 0 -46 -6.16699 -62 -18.5s-24 -28.166 -24 -47.499c0 -17.333 6.33301 -31.333 19 -42
s29 -16 49 -16c17.333 0 36 4.5 56 13.5s36.333 20.167 49 33.5z" />
    <glyph glyph-name="guillemotleft" unicode="&#xab;" horiz-adv-x="469" 
d="M301 239l152 -239h-55l-153 239l153 239h55zM88 239l152 -239h-55l-153 239l153 239h55z" />
    <glyph glyph-name="logicalnot" unicode="&#xac;" horiz-adv-x="667" 
d="M71 463h525v-283h-45v238h-480v45z" />
    <glyph glyph-name="uni00AD" unicode="&#xad;" horiz-adv-x="344" 
d="M34 214v45h275v-45h-275z" />
    <glyph glyph-name="registered" unicode="&#xae;" horiz-adv-x="802" 
d="M250 547l165 0.000976562c42 0 74.833 -9.33301 98.5 -28s35.5 -44.334 35.5 -77.001c0 -30 -10.667 -55.5 -32 -76.5s-49.666 -31.833 -84.999 -32.5v-2c29.333 -10.667 51 -25.5 65 -44.5s36 -62.833 66 -131.5h-59c-32 74 -58.333 120.833 -79 140.5
s-54.334 29.5 -101.001 29.5h-22v-170h-52v392zM302 366.001h65.001c45.333 0 77.666 5.5 96.999 16.5s29 29.833 29 56.5c0 26 -8.5 43.833 -25.5 53.5s-48.167 14.5 -93.5 14.5h-72v-141zM401.001 728.001c103.333 0 191.333 -36.333 264 -109s109 -160.667 109 -264
s-36.333 -191.333 -109 -264s-160.667 -109 -264 -109s-191.333 36.333 -264 109s-109 160.667 -109 264s36.333 191.333 109 264s160.667 109 264 109zM400.001 29.001c90 0 166.833 31.833 230.5 95.5s95.5 140.5 95.5 230.5s-31.833 166.833 -95.5 230.5
s-140.5 95.5 -230.5 95.5s-166.833 -31.833 -230.5 -95.5s-95.5 -140.5 -95.5 -230.5s31.833 -166.833 95.5 -230.5s140.5 -95.5 230.5 -95.5z" />
    <glyph glyph-name="macron" unicode="&#xaf;" horiz-adv-x="333" 
d="M6 600v29h321v-29h-321z" />
    <glyph glyph-name="degree" unicode="&#xb0;" horiz-adv-x="396" 
d="M198 690c38.667 0 71.834 -13.667 99.501 -41s41.5 -60.666 41.5 -99.999s-13.833 -72.666 -41.5 -99.999s-60.834 -41 -99.501 -41s-71.834 13.667 -99.501 41s-41.5 60.666 -41.5 99.999s13.833 72.666 41.5 99.999s60.834 41 99.501 41zM198 650
c-28.667 0 -52.667 -10.167 -72 -30.5s-29 -43.833 -29 -70.5c0 -26 9.5 -49.333 28.5 -70s43.167 -31 72.5 -31c26.667 0 50.167 9.66699 70.5 29s30.5 43.333 30.5 72c0 21.333 -9 43.5 -27 66.5s-42.667 34.5 -74 34.5z" />
    <glyph glyph-name="plusminus" unicode="&#xb1;" horiz-adv-x="667" 
d="M71 27h525v-45h-525v45zM356 421h240v-45h-240v-240h-45v240h-240v45h240v240h45v-240z" />
    <glyph glyph-name="twosuperior" unicode="&#xb2;" horiz-adv-x="323" 
d="M276 446l-3.99902 -113.999h-247c0 46.667 19.333 89.334 58 128.001c13.333 13.333 29.833 26.166 49.5 38.499s36 21.833 49 28.5s24.333 15.834 34 27.501s14.5 25.5 14.5 41.5c0 20 -6.83301 36 -20.5 48s-31.834 18 -54.501 18
c-26.667 0 -47.334 -8.16699 -62.001 -24.5s-21 -39.833 -19 -70.5h-39c-4.66699 37.333 4.83301 67.166 28.5 89.499s54.167 33.5 91.5 33.5c35.333 0 63.333 -8.66699 84 -26s31 -40.333 31 -69c0 -26.667 -7.5 -47.334 -22.5 -62.001s-37 -29.667 -66 -45
s-51.833 -31.333 -68.5 -48c-25.333 -25.333 -40.666 -51.333 -45.999 -78h168l3 84h38z" />
    <glyph glyph-name="threesuperior" unicode="&#xb3;" horiz-adv-x="323" 
d="M27 445l38.9971 -0.000976562c8 -59.333 40.667 -89 98 -89c27.333 0 49.333 6.83301 66 20.5s25 31.834 25 54.501c0 24 -10.667 43 -32 57s-51.333 18.333 -90 13v29c30 -3.33301 54 1.83398 72 15.501s27 31.167 27 52.5c0 18.667 -6.66699 34 -20 46
s-30.666 18 -51.999 18c-22 0 -39.167 -6.33301 -51.5 -19s-18.166 -30.334 -17.499 -53.001h-41c0.666992 30 10.834 54.167 30.501 72.5s45.834 27.5 78.501 27.5c33.333 0 60.666 -8.83301 81.999 -26.5s32 -40.167 32 -67.5c0 -36 -17.667 -61.667 -53 -77
c50.667 -16 76 -45.667 76 -89c0 -29.333 -12.667 -53.833 -38 -73.5s-57 -29.5 -95 -29.5c-39.333 0 -71.5 10.833 -96.5 32.5s-38.167 50.167 -39.5 85.5z" />
    <glyph glyph-name="acute" unicode="&#xb4;" horiz-adv-x="333" 
d="M131 536h-38l100 155h57z" />
    <glyph glyph-name="mu" unicode="&#xb5;" 
d="M104 473h49v-239c0 -68.667 12.333 -118.167 37 -148.5s54.667 -45.5 90 -45.5c84 0 126 66.333 126 199v234h49v-473h-49v58h-2c-33.333 -46.667 -75.333 -70 -126 -70c-25.333 0 -47.5 5.33301 -66.5 16s-37.833 28.667 -56.5 54h-2v-270h-49v685z" />
    <glyph glyph-name="paragraph" unicode="&#xb6;" horiz-adv-x="646" 
d="M618 679v-67h-95v-824h-63v824h-130v-824h-64v478c-69.333 0 -123.166 20.333 -161.499 61s-57.5 90 -57.5 148c0 62 21.167 111.5 63.5 148.5s99.166 55.5 170.499 55.5h337z" />
    <glyph glyph-name="periodcentered" unicode="&#xb7;" horiz-adv-x="292" 
d="M118 287v93h56v-93h-56z" />
    <glyph glyph-name="cedilla" unicode="&#xb8;" horiz-adv-x="333" 
d="M127 -80l14 73.0029h32l-7 -36c22.667 -2.66699 40.5 -10.834 53.5 -24.501s19.5 -31.167 19.5 -52.5c0 -33.333 -15 -57.333 -45 -72s-70.667 -21.334 -122 -20.001v32c32 -2.66699 59.5 0.166016 82.5 8.49902s34.5 23.5 34.5 45.5c0 26 -20.667 41.333 -62 46z" />
    <glyph glyph-name="onesuperior" unicode="&#xb9;" horiz-adv-x="323" 
d="M84 332v29h56v294h-56v29h99v-323h56v-29h-155z" />
    <glyph glyph-name="ordmasculine" unicode="&#xba;" horiz-adv-x="354" 
d="M24 540c0 42.667 14.6689 78.334 44.002 107.001s65.666 43 108.999 43s79.666 -14.333 108.999 -43s44 -64.334 44 -107.001s-14.5 -78.334 -43.5 -107.001s-65.167 -43 -108.5 -43c-44 0 -80.667 14.333 -110 43s-44 64.334 -44 107.001zM59.002 540
c0 -35.333 11.167 -64.5 33.5 -87.5s50.833 -34.5 85.5 -34.5c34 0 62.167 11.5 84.5 34.5s33.5 52.167 33.5 87.5s-11.167 64.5 -33.5 87.5s-50.5 34.5 -84.5 34.5c-34.667 0 -63.167 -11.5 -85.5 -34.5s-33.5 -52.167 -33.5 -87.5z" />
    <glyph glyph-name="guillemotright" unicode="&#xbb;" horiz-adv-x="469" 
d="M381 239l-152 239h55l153 -239l-153 -239h-55zM168 239l-152 239h55l153 -239l-153 -239h-55z" />
    <glyph glyph-name="onequarter" unicode="&#xbc;" horiz-adv-x="844" 
d="M560 0v27h44v75h-153c-2.66699 10 -8 17.333 -16 22l169 231h39v-227h65v-26h-65v-75h35v-27h-118zM125 0l478 679h35l-478 -679h-35zM604 128v171h-2l-125 -171h127zM85 332v29h56v294h-56v29h99v-323h56v-29h-155z" />
    <glyph glyph-name="onehalf" unicode="&#xbd;" horiz-adv-x="844" 
d="M84 332v29h56v294h-56v29h99v-323h56v-29h-155zM125 0l478 679h35l-478 -679h-35zM749 114l-3.99902 -113.999h-247c0 46.667 19.333 89.334 58 128.001c13.333 13.333 29.833 26.166 49.5 38.499s36 21.833 49 28.5s24.333 15.834 34 27.501s14.5 25.5 14.5 41.5
c0 20 -6.83301 36 -20.5 48s-31.834 18 -54.501 18c-26.667 0 -47.334 -8.16699 -62.001 -24.5s-21 -39.833 -19 -70.5h-39c-4.66699 37.333 4.83301 67.166 28.5 89.499s54.167 33.5 91.5 33.5c35.333 0 63.333 -8.66699 84 -26s31 -40.333 31 -69
c0 -26.667 -7.5 -47.334 -22.5 -62.001s-37 -29.667 -66 -45s-51.833 -31.333 -68.5 -48c-25.333 -25.333 -40.666 -51.333 -45.999 -78h168l3 84h38z" />
    <glyph glyph-name="threequarters" unicode="&#xbe;" horiz-adv-x="844" 
d="M635 0v27h44v75h-153c-2.66699 10 -8 17.333 -16 22l169 231h39v-227h65v-26h-65v-75h35v-27h-118zM200 0l478 679h35l-478 -679h-35zM679 128v171h-2l-125 -171h127zM63 445l38.9971 -0.000976562c8 -59.333 40.667 -89 98 -89c27.333 0 49.333 6.83301 66 20.5
s25 31.834 25 54.501c0 24 -10.667 43 -32 57s-51.333 18.333 -90 13v29c30 -3.33301 54 1.83398 72 15.501s27 31.167 27 52.5c0 18.667 -6.66699 34 -20 46s-30.666 18 -51.999 18c-22 0 -39.167 -6.33301 -51.5 -19s-18.166 -30.334 -17.499 -53.001h-41
c0.666992 30 10.834 54.167 30.501 72.5s45.834 27.5 78.501 27.5c33.333 0 60.666 -8.83301 81.999 -26.5s32 -40.167 32 -67.5c0 -36 -17.667 -61.667 -53 -77c50.667 -16 76 -45.667 76 -89c0 -29.333 -12.667 -53.833 -38 -73.5s-57 -29.5 -95 -29.5
c-39.333 0 -71.5 10.833 -96.5 32.5s-38.167 50.167 -39.5 85.5z" />
    <glyph glyph-name="questiondown" unicode="&#xbf;" horiz-adv-x="448" 
d="M259 289l18 -192.002l-7 -3c-20 4.66699 -40.5 5.33398 -61.5 2.00098s-40.167 -9 -57.5 -17s-31.5 -21.667 -42.5 -41s-16.5 -43.333 -16.5 -72c0 -39.333 13.333 -72.166 40 -98.499s60.667 -39.5 102 -39.5s74.5 12.833 99.5 38.5s37.5 59.5 37.5 101.5h47
c0 -54.667 -17 -99.167 -51 -133.5s-78.667 -51.5 -134 -51.5s-101 17.5 -137 52.5s-54 79.5 -54 133.5c0 46.667 15.667 88 47 124s76 53 134 51l12 145h24zM221 379.998v93h56v-93h-56z" />
    <glyph glyph-name="Agrave" unicode="&#xc0;" horiz-adv-x="656" 
d="M63 45l204 589h-85v45h292v-45h-85l207 -589h84v-45h-225v45h85l-75 213h-274l-73 -213h89v-45h-230v45h86zM207 303h243l-118 344h-7zM364 739l-119 155h57l100 -155h-38z" />
    <glyph glyph-name="Aacute" unicode="&#xc1;" horiz-adv-x="656" 
d="M63 45l204 589h-85v45h292v-45h-85l207 -589h84v-45h-225v45h85l-75 213h-274l-73 -213h89v-45h-230v45h86zM207 303h243l-118 344h-7zM293 739h-38l100 155h57z" />
    <glyph glyph-name="Acircumflex" unicode="&#xc2;" horiz-adv-x="656" 
d="M63 45l204 589h-85v45h292v-45h-85l207 -589h84v-45h-225v45h85l-75 213h-274l-73 -213h89v-45h-230v45h86zM207 303h243l-118 344h-7zM181 743l118 145h50l127 -145h-37l-115 101l-108 -101h-35z" />
    <glyph glyph-name="Atilde" unicode="&#xc3;" horiz-adv-x="656" 
d="M63 45l204 589h-85v45h292v-45h-85l207 -589h84v-45h-225v45h85l-75 213h-274l-73 -213h89v-45h-230v45h86zM207 303h243l-118 344h-7zM194 772l-26.999 0.000976562c18.667 58.667 48 88 88 88c18 0 43 -8 75 -24s57 -24 75 -24c25.333 0 45 15.667 59 47h26
c-6.66699 -26.667 -18.334 -47.834 -35.001 -63.501s-35.667 -23.5 -57 -23.5c-18.667 0 -44 8 -76 24s-55.333 24 -70 24c-26.667 0 -46 -16 -58 -48z" />
    <glyph glyph-name="Adieresis" unicode="&#xc4;" horiz-adv-x="656" 
d="M63 45l204 589h-85v45h292v-45h-85l207 -589h84v-45h-225v45h85l-75 213h-274l-73 -213h89v-45h-230v45h86zM207 303h243l-118 344h-7zM415 849c9.33301 0 17.333 -3.33301 24 -10s10 -14.667 10 -24s-3.33301 -17.333 -10 -24s-14.667 -10 -24 -10
s-17.333 3.33301 -24 10s-10 14.667 -10 24s3.33301 17.333 10 24s14.667 10 24 10zM242 849c9.33301 0 17.333 -3.33301 24 -10s10 -14.667 10 -24s-3.33301 -17.333 -10 -24s-14.667 -10 -24 -10s-17.333 3.33301 -24 10s-10 14.667 -10 24s3.33301 17.333 10 24
s14.667 10 24 10z" />
    <glyph glyph-name="Aring" unicode="&#xc5;" horiz-adv-x="656" 
d="M63 45l204 589h-85v45h292v-45h-85l207 -589h84v-45h-225v45h85l-75 213h-274l-73 -213h89v-45h-230v45h86zM207 303h243l-118 344h-7zM328 906c25.333 0 47 -8.83301 65 -26.5s27 -39.167 27 -64.5s-9 -47 -27 -65s-39.667 -27 -65 -27s-46.833 9 -64.5 27
s-26.5 39.667 -26.5 65s8.83301 46.833 26.5 64.5s39.167 26.5 64.5 26.5zM328 876c-17.333 0 -31.833 -6 -43.5 -18s-17.5 -26.333 -17.5 -43c0 -17.333 6 -32 18 -44s26.333 -18 43 -18c17.333 0 32 6.16699 44 18.5s18 26.833 18 43.5s-6 31 -18 43s-26.667 18 -44 18z
" />
    <glyph glyph-name="AE" unicode="&#xc6;" horiz-adv-x="938" 
d="M-61 0v45h72l324 589h-112v45h670v-165h-46v120h-357v-263h285v-45h-285v-281h357v122h46v-167h-572v45h113v281h-211l-156 -281h79v-45h-207zM246 371h188v263h-43z" />
    <glyph glyph-name="Ccedilla" unicode="&#xc7;" horiz-adv-x="750" 
d="M327 -70l12 65.0039c-84 12.667 -151.167 50 -201.5 112s-75.5 139 -75.5 231c0 109.333 32.333 195.333 97 258s143 94 235 94c51.333 0 99.166 -10.5 143.499 -31.5s80.5 -50.167 108.5 -87.5h2v108h46v-217h-47c-9.33301 55.333 -38.666 99 -87.999 131
s-103 48 -161 48c-82 0 -149.167 -28 -201.5 -84s-78.5 -127.667 -78.5 -215c0 -88.667 26.667 -161.334 80 -218.001s121.333 -85 204 -85c130 0 220.333 69.667 271 209l44 -25c-22.667 -74.667 -61.5 -132.167 -116.5 -172.5s-121.833 -60.5 -200.5 -60.5
c-13.333 0 -23 0.333008 -29 1l-5 -24c22.667 -2.66699 40.5 -10.834 53.5 -24.501s19.5 -31.167 19.5 -52.5c0 -33.333 -15 -57.333 -45 -72s-70.667 -21.334 -122 -20.001v32c32 -2.66699 59.5 0.166016 82.5 8.49902s34.5 23.5 34.5 45.5c0 26 -20.667 41.333 -62 46z
" />
    <glyph glyph-name="Egrave" unicode="&#xc8;" horiz-adv-x="604" 
d="M15 0v45h87v589h-87v45h544v-165h-46v120h-355v-264h282v-45h-282v-280h355v122h46v-167h-544zM338 739l-119 155h57l100 -155h-38z" />
    <glyph glyph-name="Eacute" unicode="&#xc9;" horiz-adv-x="604" 
d="M15 0v45h87v589h-87v45h544v-165h-46v120h-355v-264h282v-45h-282v-280h355v122h46v-167h-544zM267 739h-38l100 155h57z" />
    <glyph glyph-name="Ecircumflex" unicode="&#xca;" horiz-adv-x="604" 
d="M15 0v45h87v589h-87v45h544v-165h-46v120h-355v-264h282v-45h-282v-280h355v122h46v-167h-544zM155 743l118 145h50l127 -145h-37l-115 101l-108 -101h-35z" />
    <glyph glyph-name="Edieresis" unicode="&#xcb;" horiz-adv-x="604" 
d="M15 0v45h87v589h-87v45h544v-165h-46v120h-355v-264h282v-45h-282v-280h355v122h46v-167h-544zM389 849c9.33301 0 17.333 -3.33301 24 -10s10 -14.667 10 -24s-3.33301 -17.333 -10 -24s-14.667 -10 -24 -10s-17.333 3.33301 -24 10s-10 14.667 -10 24
s3.33301 17.333 10 24s14.667 10 24 10zM216 849c9.33301 0 17.333 -3.33301 24 -10s10 -14.667 10 -24s-3.33301 -17.333 -10 -24s-14.667 -10 -24 -10s-17.333 3.33301 -24 10s-10 14.667 -10 24s3.33301 17.333 10 24s14.667 10 24 10z" />
    <glyph glyph-name="Igrave" unicode="&#xcc;" horiz-adv-x="281" 
d="M27 0v45h85v589h-85v45h227v-45h-86v-589h86v-45h-227zM176 739l-119 155h57l100 -155h-38z" />
    <glyph glyph-name="Iacute" unicode="&#xcd;" horiz-adv-x="281" 
d="M27 0v45h85v589h-85v45h227v-45h-86v-589h86v-45h-227zM105 739h-38l100 155h57z" />
    <glyph glyph-name="Icircumflex" unicode="&#xce;" horiz-adv-x="281" 
d="M27 0v45h85v589h-85v45h227v-45h-86v-589h86v-45h-227zM-7 743l118 145h50l127 -145h-37l-115 101l-108 -101h-35z" />
    <glyph glyph-name="Idieresis" unicode="&#xcf;" horiz-adv-x="281" 
d="M27 0v45h85v589h-85v45h227v-45h-86v-589h86v-45h-227zM227 849c9.33301 0 17.333 -3.33301 24 -10s10 -14.667 10 -24s-3.33301 -17.333 -10 -24s-14.667 -10 -24 -10s-17.333 3.33301 -24 10s-10 14.667 -10 24s3.33301 17.333 10 24s14.667 10 24 10zM54 849
c9.33301 0 17.333 -3.33301 24 -10s10 -14.667 10 -24s-3.33301 -17.333 -10 -24s-14.667 -10 -24 -10s-17.333 3.33301 -24 10s-10 14.667 -10 24s3.33301 17.333 10 24s14.667 10 24 10z" />
    <glyph glyph-name="Eth" unicode="&#xd0;" horiz-adv-x="708" 
d="M9 0l0.00195312 45.002h94v273h-94v45h94v271h-94v45h270c65.333 0 121.166 -6.33301 167.499 -19s85.833 -35.334 118.5 -68.001c63.333 -63.333 95 -145.333 95 -246c0 -110.667 -33.333 -199.334 -100 -266.001c-28.667 -28.667 -64.834 -49.167 -108.501 -61.5
s-99.167 -18.5 -166.5 -18.5h-276zM159.002 45.002l128.001 0.000976562c110 0 189 24 237 72c53.333 53.333 80 129 80 227c0 90 -25.667 160.667 -77 212c-29.333 29.333 -63.333 49.666 -102 60.999s-85.334 17 -140.001 17h-126v-271h208v-45h-208v-273z" />
    <glyph glyph-name="Ntilde" unicode="&#xd1;" horiz-adv-x="708" 
d="M10 0v45h91v589h-91v45h160l390 -599h2v554h-95v45h231v-45h-89v-643h-52l-407 624h-2v-570h96v-45h-234zM220 772l-26.999 0.000976562c18.667 58.667 48 88 88 88c18 0 43 -8 75 -24s57 -24 75 -24c25.333 0 45 15.667 59 47h26
c-6.66699 -26.667 -18.334 -47.834 -35.001 -63.501s-35.667 -23.5 -57 -23.5c-18.667 0 -44 8 -76 24s-55.333 24 -70 24c-26.667 0 -46 -16 -58 -48z" />
    <glyph glyph-name="Ograve" unicode="&#xd2;" horiz-adv-x="781" 
d="M50 340c0 101.333 32.001 185 96.001 251s145.667 99 245 99c98.667 0 180.167 -33 244.5 -99s96.5 -149.667 96.5 -251c0 -100.667 -31.833 -184.167 -95.5 -250.5s-143.167 -99.5 -238.5 -99.5c-102.667 0 -186.334 32.5 -251.001 97.5s-97 149.167 -97 252.5z
M106.001 340c0 -87.333 26.833 -159.333 80.5 -216s121.834 -85 204.501 -85s150.834 28.333 204.501 85s80.5 128.667 80.5 216s-26.833 159.333 -80.5 216s-121.834 85 -204.501 85s-150.834 -28.333 -204.501 -85s-80.5 -128.667 -80.5 -216zM426.001 739l-119 155h57
l100 -155h-38z" />
    <glyph glyph-name="Oacute" unicode="&#xd3;" horiz-adv-x="781" 
d="M50 340c0 101.333 32.001 185 96.001 251s145.667 99 245 99c98.667 0 180.167 -33 244.5 -99s96.5 -149.667 96.5 -251c0 -100.667 -31.833 -184.167 -95.5 -250.5s-143.167 -99.5 -238.5 -99.5c-102.667 0 -186.334 32.5 -251.001 97.5s-97 149.167 -97 252.5z
M106.001 340c0 -87.333 26.833 -159.333 80.5 -216s121.834 -85 204.501 -85s150.834 28.333 204.501 85s80.5 128.667 80.5 216s-26.833 159.333 -80.5 216s-121.834 85 -204.501 85s-150.834 -28.333 -204.501 -85s-80.5 -128.667 -80.5 -216zM355.001 739h-38l100 155h57
z" />
    <glyph glyph-name="Ocircumflex" unicode="&#xd4;" horiz-adv-x="781" 
d="M50 340c0 101.333 32.001 185 96.001 251s145.667 99 245 99c98.667 0 180.167 -33 244.5 -99s96.5 -149.667 96.5 -251c0 -100.667 -31.833 -184.167 -95.5 -250.5s-143.167 -99.5 -238.5 -99.5c-102.667 0 -186.334 32.5 -251.001 97.5s-97 149.167 -97 252.5z
M106.001 340c0 -87.333 26.833 -159.333 80.5 -216s121.834 -85 204.501 -85s150.834 28.333 204.501 85s80.5 128.667 80.5 216s-26.833 159.333 -80.5 216s-121.834 85 -204.501 85s-150.834 -28.333 -204.501 -85s-80.5 -128.667 -80.5 -216zM243.001 743l118 145h50
l127 -145h-37l-115 101l-108 -101h-35z" />
    <glyph glyph-name="Otilde" unicode="&#xd5;" horiz-adv-x="781" 
d="M50 340c0 101.333 32.001 185 96.001 251s145.667 99 245 99c98.667 0 180.167 -33 244.5 -99s96.5 -149.667 96.5 -251c0 -100.667 -31.833 -184.167 -95.5 -250.5s-143.167 -99.5 -238.5 -99.5c-102.667 0 -186.334 32.5 -251.001 97.5s-97 149.167 -97 252.5z
M106.001 340c0 -87.333 26.833 -159.333 80.5 -216s121.834 -85 204.501 -85s150.834 28.333 204.501 85s80.5 128.667 80.5 216s-26.833 159.333 -80.5 216s-121.834 85 -204.501 85s-150.834 -28.333 -204.501 -85s-80.5 -128.667 -80.5 -216zM256.001 772
l-26.999 0.000976562c18.667 58.667 48 88 88 88c18 0 43 -8 75 -24s57 -24 75 -24c25.333 0 45 15.667 59 47h26c-6.66699 -26.667 -18.334 -47.834 -35.001 -63.501s-35.667 -23.5 -57 -23.5c-18.667 0 -44 8 -76 24s-55.333 24 -70 24c-26.667 0 -46 -16 -58 -48z" />
    <glyph glyph-name="Odieresis" unicode="&#xd6;" horiz-adv-x="781" 
d="M50 340c0 101.333 32.001 185 96.001 251s145.667 99 245 99c98.667 0 180.167 -33 244.5 -99s96.5 -149.667 96.5 -251c0 -100.667 -31.833 -184.167 -95.5 -250.5s-143.167 -99.5 -238.5 -99.5c-102.667 0 -186.334 32.5 -251.001 97.5s-97 149.167 -97 252.5z
M106.001 340c0 -87.333 26.833 -159.333 80.5 -216s121.834 -85 204.501 -85s150.834 28.333 204.501 85s80.5 128.667 80.5 216s-26.833 159.333 -80.5 216s-121.834 85 -204.501 85s-150.834 -28.333 -204.501 -85s-80.5 -128.667 -80.5 -216zM477.001 849
c9.33301 0 17.333 -3.33301 24 -10s10 -14.667 10 -24s-3.33301 -17.333 -10 -24s-14.667 -10 -24 -10s-17.333 3.33301 -24 10s-10 14.667 -10 24s3.33301 17.333 10 24s14.667 10 24 10zM304.001 849c9.33301 0 17.333 -3.33301 24 -10s10 -14.667 10 -24
s-3.33301 -17.333 -10 -24s-14.667 -10 -24 -10s-17.333 3.33301 -24 10s-10 14.667 -10 24s3.33301 17.333 10 24s14.667 10 24 10z" />
    <glyph glyph-name="multiply" unicode="&#xd7;" horiz-adv-x="668" 
d="M334 289l-207 -206l-32 32l206 206l-206 206l32 32l206 -207l207 207l32 -32l-206 -206l206 -206l-32 -32z" />
    <glyph glyph-name="Oslash" unicode="&#xd8;" horiz-adv-x="781" 
d="M611 614l62.0039 71.002l26 -23l-64 -72c64.667 -62.667 97 -145.334 97 -248.001c0 -44 -7 -86.333 -21 -127s-34.333 -78 -61 -112s-62.5 -61.333 -107.5 -82s-95.5 -31 -151.5 -31c-50 0 -90.833 5.5 -122.5 16.5s-63.167 30.167 -94.5 57.5l-62 -69l-26 22l62 71
c-65.333 67.333 -98 150.666 -98 249.999c0 44 7.16699 86.667 21.5 128s35.166 78.833 62.499 112.5s63.166 60.667 107.499 81s94.166 30.5 149.499 30.5c44.667 0 83.167 -5.5 115.5 -16.5s67.166 -30.833 104.499 -59.5zM183.004 128.002l392.999 446.999
c-32 24.667 -61.167 41.834 -87.5 51.501s-57.833 14.5 -94.5 14.5c-85.333 0 -154.666 -28.333 -207.999 -85s-80 -130 -80 -220c0 -42 5.83301 -79.167 17.5 -111.5s31.5 -64.5 59.5 -96.5zM602.003 551.001l-393.001 -446.999c48 -43.333 107.333 -65 178 -65
c50 0 94.5 9.66699 133.5 29s69.333 44.666 91 75.999s37.834 63.833 48.501 97.5s16 67.167 16 100.5c0 86 -24.667 155.667 -74 209z" />
    <glyph glyph-name="Ugrave" unicode="&#xd9;" horiz-adv-x="646" 
d="M90 634l-87.001 0.00292969v45h229v-45h-86v-436c0 -52.667 15.333 -92.334 46 -119.001s73.334 -40 128.001 -40c119.333 0 179 52.333 179 157v438h-86v45h229v-45h-87v-436c0 -34.667 -5.66699 -65 -17 -91s-25 -46.167 -41 -60.5s-35 -26 -57 -35
s-41.667 -14.833 -59 -17.5s-35 -4 -53 -4c-24.667 0 -48 2 -70 6s-43.5 11 -64.5 21s-39 22.667 -54 38s-27 35.166 -36 59.499s-13.5 52.166 -13.5 83.499v436zM358.999 739.003l-119 155h57l100 -155h-38z" />
    <glyph glyph-name="Uacute" unicode="&#xda;" horiz-adv-x="646" 
d="M90 634l-87.001 0.00292969v45h229v-45h-86v-436c0 -52.667 15.333 -92.334 46 -119.001s73.334 -40 128.001 -40c119.333 0 179 52.333 179 157v438h-86v45h229v-45h-87v-436c0 -34.667 -5.66699 -65 -17 -91s-25 -46.167 -41 -60.5s-35 -26 -57 -35
s-41.667 -14.833 -59 -17.5s-35 -4 -53 -4c-24.667 0 -48 2 -70 6s-43.5 11 -64.5 21s-39 22.667 -54 38s-27 35.166 -36 59.499s-13.5 52.166 -13.5 83.499v436zM287.999 739.003h-38l100 155h57z" />
    <glyph glyph-name="Ucircumflex" unicode="&#xdb;" horiz-adv-x="646" 
d="M90 634l-87.001 0.00292969v45h229v-45h-86v-436c0 -52.667 15.333 -92.334 46 -119.001s73.334 -40 128.001 -40c119.333 0 179 52.333 179 157v438h-86v45h229v-45h-87v-436c0 -34.667 -5.66699 -65 -17 -91s-25 -46.167 -41 -60.5s-35 -26 -57 -35
s-41.667 -14.833 -59 -17.5s-35 -4 -53 -4c-24.667 0 -48 2 -70 6s-43.5 11 -64.5 21s-39 22.667 -54 38s-27 35.166 -36 59.499s-13.5 52.166 -13.5 83.499v436zM175.999 743.003l118 145h50l127 -145h-37l-115 101l-108 -101h-35z" />
    <glyph glyph-name="Udieresis" unicode="&#xdc;" horiz-adv-x="646" 
d="M90 634l-87.001 0.00292969v45h229v-45h-86v-436c0 -52.667 15.333 -92.334 46 -119.001s73.334 -40 128.001 -40c119.333 0 179 52.333 179 157v438h-86v45h229v-45h-87v-436c0 -34.667 -5.66699 -65 -17 -91s-25 -46.167 -41 -60.5s-35 -26 -57 -35
s-41.667 -14.833 -59 -17.5s-35 -4 -53 -4c-24.667 0 -48 2 -70 6s-43.5 11 -64.5 21s-39 22.667 -54 38s-27 35.166 -36 59.499s-13.5 52.166 -13.5 83.499v436zM409.999 849.003c9.33301 0 17.333 -3.33301 24 -10s10 -14.667 10 -24s-3.33301 -17.333 -10 -24
s-14.667 -10 -24 -10s-17.333 3.33301 -24 10s-10 14.667 -10 24s3.33301 17.333 10 24s14.667 10 24 10zM236.999 849.003c9.33301 0 17.333 -3.33301 24 -10s10 -14.667 10 -24s-3.33301 -17.333 -10 -24s-14.667 -10 -24 -10s-17.333 3.33301 -24 10s-10 14.667 -10 24
s3.33301 17.333 10 24s14.667 10 24 10z" />
    <glyph glyph-name="Yacute" unicode="&#xdd;" horiz-adv-x="604" 
d="M183 0v45h94v261l-208 328h-88v45h242v-45h-89l176 -279l177 279h-88v45h224v-45h-82l-208 -328v-261h97v-45h-247zM267 739h-38l100 155h57z" />
    <glyph glyph-name="Thorn" unicode="&#xde;" 
d="M16 0l0.000976562 45h90v589h-90v45h238v-45h-92v-95h148c74.667 0 130.5 -18.833 167.5 -56.5s55.5 -85.167 55.5 -142.5c0 -56 -18.333 -103.333 -55 -142s-91.334 -58 -164.001 -58h-152v-95h92v-45h-238zM162.001 494v-309h128c124.667 0 187 50 187 150
c0 54 -14.667 94 -44 120s-75 39 -137 39h-134z" />
    <glyph glyph-name="germandbls" unicode="&#xdf;" horiz-adv-x="615" 
d="M101 45l-0.00195312 458.003c0 57.333 18 102.833 54 136.5s87 50.5 153 50.5c61.333 0 110.5 -15.167 147.5 -45.5s55.5 -70.166 55.5 -119.499c0 -31.333 -8 -58.333 -24 -81s-38.667 -38.334 -68 -47.001v-2c48.667 -8.66699 86.667 -30.5 114 -65.5
s41 -78.5 41 -130.5c0 -60.667 -17.833 -110.167 -53.5 -148.5s-81.5 -57.5 -137.5 -57.5c-21.333 0 -40.333 2.33301 -57 7v45c6.66699 -4 16 -6.66699 28 -8c14.667 -1.33301 25 -2 31 -2c34.667 0 66.334 14 95.001 42s43 67.667 43 119c0 23.333 -3 44.666 -9 63.999
s-16 37.833 -30 55.5s-34.5 31.5 -61.5 41.5s-59.167 15 -96.5 15v40c46.667 -2 80.667 8.83301 102 32.5s32 51.834 32 84.501c0 34.667 -13.833 63.167 -41.5 85.5s-64.5 33.5 -110.5 33.5c-18.667 0 -36.167 -1.83301 -52.5 -5.5s-32.666 -10.334 -48.999 -20.001
s-29.333 -24.334 -39 -44.001s-14.5 -43.834 -14.5 -72.501v-461h75v-45h-212v45h85z" />
    <glyph glyph-name="agrave" unicode="&#xe0;" horiz-adv-x="510" 
d="M370 0l-0.00195312 68c-58.667 -50 -117 -75 -175 -75c-40 0 -74 13.667 -102 41s-42 60.333 -42 99c0 42.667 16.5 77.667 49.5 105s74.833 41 125.5 41c46 0 94 -13 144 -39v110c0 66 -42 99 -126 99c-72 0 -120.667 -27 -146 -81l-39 10
c18.667 38 42.834 65.5 72.501 82.5s68.5 25.5 116.5 25.5c58.667 0 102.334 -11.833 131.001 -35.5s43 -56.5 43 -98.5v-307h78v-45h-130zM369.998 112v86c-48.667 28 -93.667 42 -135 42c-38.667 0 -70.167 -10.167 -94.5 -30.5s-36.5 -46.833 -36.5 -79.5
c0 -28 9.83301 -51.167 29.5 -69.5s44.5 -27.5 74.5 -27.5c27.333 0 56.333 7.5 87 22.5s55.667 33.833 75 56.5zM290.998 536l-119 155h57l100 -155h-38z" />
    <glyph glyph-name="aacute" unicode="&#xe1;" horiz-adv-x="510" 
d="M370 0l-0.00195312 68c-58.667 -50 -117 -75 -175 -75c-40 0 -74 13.667 -102 41s-42 60.333 -42 99c0 42.667 16.5 77.667 49.5 105s74.833 41 125.5 41c46 0 94 -13 144 -39v110c0 66 -42 99 -126 99c-72 0 -120.667 -27 -146 -81l-39 10
c18.667 38 42.834 65.5 72.501 82.5s68.5 25.5 116.5 25.5c58.667 0 102.334 -11.833 131.001 -35.5s43 -56.5 43 -98.5v-307h78v-45h-130zM369.998 112v86c-48.667 28 -93.667 42 -135 42c-38.667 0 -70.167 -10.167 -94.5 -30.5s-36.5 -46.833 -36.5 -79.5
c0 -28 9.83301 -51.167 29.5 -69.5s44.5 -27.5 74.5 -27.5c27.333 0 56.333 7.5 87 22.5s55.667 33.833 75 56.5zM219.998 536h-38l100 155h57z" />
    <glyph glyph-name="acircumflex" unicode="&#xe2;" horiz-adv-x="510" 
d="M370 0l-0.00195312 68c-58.667 -50 -117 -75 -175 -75c-40 0 -74 13.667 -102 41s-42 60.333 -42 99c0 42.667 16.5 77.667 49.5 105s74.833 41 125.5 41c46 0 94 -13 144 -39v110c0 66 -42 99 -126 99c-72 0 -120.667 -27 -146 -81l-39 10
c18.667 38 42.834 65.5 72.501 82.5s68.5 25.5 116.5 25.5c58.667 0 102.334 -11.833 131.001 -35.5s43 -56.5 43 -98.5v-307h78v-45h-130zM369.998 112v86c-48.667 28 -93.667 42 -135 42c-38.667 0 -70.167 -10.167 -94.5 -30.5s-36.5 -46.833 -36.5 -79.5
c0 -28 9.83301 -51.167 29.5 -69.5s44.5 -27.5 74.5 -27.5c27.333 0 56.333 7.5 87 22.5s55.667 33.833 75 56.5zM107.998 540l118 145h50l127 -145h-37l-115 101l-108 -101h-35z" />
    <glyph glyph-name="atilde" unicode="&#xe3;" horiz-adv-x="510" 
d="M370 0l-0.00195312 68c-58.667 -50 -117 -75 -175 -75c-40 0 -74 13.667 -102 41s-42 60.333 -42 99c0 42.667 16.5 77.667 49.5 105s74.833 41 125.5 41c46 0 94 -13 144 -39v110c0 66 -42 99 -126 99c-72 0 -120.667 -27 -146 -81l-39 10
c18.667 38 42.834 65.5 72.501 82.5s68.5 25.5 116.5 25.5c58.667 0 102.334 -11.833 131.001 -35.5s43 -56.5 43 -98.5v-307h78v-45h-130zM369.998 112v86c-48.667 28 -93.667 42 -135 42c-38.667 0 -70.167 -10.167 -94.5 -30.5s-36.5 -46.833 -36.5 -79.5
c0 -28 9.83301 -51.167 29.5 -69.5s44.5 -27.5 74.5 -27.5c27.333 0 56.333 7.5 87 22.5s55.667 33.833 75 56.5zM120.998 569l-26.999 0.000976562c18.667 58.667 48 88 88 88c18 0 43 -8 75 -24s57 -24 75 -24c25.333 0 45 15.667 59 47h26
c-6.66699 -26.667 -18.334 -47.834 -35.001 -63.501s-35.667 -23.5 -57 -23.5c-18.667 0 -44 8 -76 24s-55.333 24 -70 24c-26.667 0 -46 -16 -58 -48z" />
    <glyph glyph-name="adieresis" unicode="&#xe4;" horiz-adv-x="510" 
d="M370 0l-0.00195312 68c-58.667 -50 -117 -75 -175 -75c-40 0 -74 13.667 -102 41s-42 60.333 -42 99c0 42.667 16.5 77.667 49.5 105s74.833 41 125.5 41c46 0 94 -13 144 -39v110c0 66 -42 99 -126 99c-72 0 -120.667 -27 -146 -81l-39 10
c18.667 38 42.834 65.5 72.501 82.5s68.5 25.5 116.5 25.5c58.667 0 102.334 -11.833 131.001 -35.5s43 -56.5 43 -98.5v-307h78v-45h-130zM369.998 112v86c-48.667 28 -93.667 42 -135 42c-38.667 0 -70.167 -10.167 -94.5 -30.5s-36.5 -46.833 -36.5 -79.5
c0 -28 9.83301 -51.167 29.5 -69.5s44.5 -27.5 74.5 -27.5c27.333 0 56.333 7.5 87 22.5s55.667 33.833 75 56.5zM341.998 646c9.33301 0 17.333 -3.33301 24 -10s10 -14.667 10 -24s-3.33301 -17.333 -10 -24s-14.667 -10 -24 -10s-17.333 3.33301 -24 10
s-10 14.667 -10 24s3.33301 17.333 10 24s14.667 10 24 10zM168.998 646c9.33301 0 17.333 -3.33301 24 -10s10 -14.667 10 -24s-3.33301 -17.333 -10 -24s-14.667 -10 -24 -10s-17.333 3.33301 -24 10s-10 14.667 -10 24s3.33301 17.333 10 24s14.667 10 24 10z" />
    <glyph glyph-name="aring" unicode="&#xe5;" horiz-adv-x="510" 
d="M370 0l-0.00195312 68c-58.667 -50 -117 -75 -175 -75c-40 0 -74 13.667 -102 41s-42 60.333 -42 99c0 42.667 16.5 77.667 49.5 105s74.833 41 125.5 41c46 0 94 -13 144 -39v110c0 66 -42 99 -126 99c-72 0 -120.667 -27 -146 -81l-39 10
c18.667 38 42.834 65.5 72.501 82.5s68.5 25.5 116.5 25.5c58.667 0 102.334 -11.833 131.001 -35.5s43 -56.5 43 -98.5v-307h78v-45h-130zM369.998 112v86c-48.667 28 -93.667 42 -135 42c-38.667 0 -70.167 -10.167 -94.5 -30.5s-36.5 -46.833 -36.5 -79.5
c0 -28 9.83301 -51.167 29.5 -69.5s44.5 -27.5 74.5 -27.5c27.333 0 56.333 7.5 87 22.5s55.667 33.833 75 56.5zM254.998 703c25.333 0 47 -8.83301 65 -26.5s27 -39.167 27 -64.5s-9 -47 -27 -65s-39.667 -27 -65 -27s-46.833 9 -64.5 27s-26.5 39.667 -26.5 65
s8.83301 46.833 26.5 64.5s39.167 26.5 64.5 26.5zM254.998 673c-16.667 0 -31 -5.83301 -43 -17.5s-18 -26.167 -18 -43.5s6 -32 18 -44s26.333 -18 43 -18s31.167 6 43.5 18s18.5 26.667 18.5 44c0 16.667 -6 31 -18 43s-26.667 18 -44 18z" />
    <glyph glyph-name="ae" unicode="&#xe6;" horiz-adv-x="865" 
d="M829 225h-416.001c4.66699 -59.333 24.834 -106.5 60.501 -141.5s81.167 -52.5 136.5 -52.5c74.667 0 136.667 33.333 186 100l40 -21c-21.333 -33.333 -50.833 -62.333 -88.5 -87s-83.167 -37 -136.5 -37c-87.333 0 -154.666 36 -201.999 108
c-64.667 -72 -131.667 -108 -201 -108c-44.667 0 -81.5 13.833 -110.5 41.5s-43.5 62.5 -43.5 104.5c0 43.333 15.667 78.333 47 105s72.333 40 123 40c49.333 0 97 -14 143 -42v113c0 66 -42.333 99 -127 99c-67.333 0 -113.333 -26.667 -138 -80l-41 11
c13.333 33.333 36.5 59.666 69.5 78.999s71.833 29 116.5 29c94 0 149.333 -36 166 -108c45.333 72 108.666 108 189.999 108c62 0 115.167 -22.667 159.5 -68s66.5 -109.666 66.5 -192.999zM417.999 270h360.003c-2.66699 50 -21.334 91.167 -56.001 123.5
s-75.334 48.5 -122.001 48.5c-44.667 0 -84.834 -15.5 -120.501 -46.5s-56.167 -72.833 -61.5 -125.5zM367.002 195c-56 29.333 -102 43.999 -138 43.999c-36.667 0 -66.667 -10.167 -90 -30.5s-35 -46.166 -35 -77.499c0 -30.667 10.167 -56 30.5 -76s45.833 -30 76.5 -30
c54.667 0 106.667 26.333 156 79v91z" />
    <glyph glyph-name="ccedilla" unicode="&#xe7;" horiz-adv-x="510" 
d="M217 -80l13.999 71.0049c-57.333 9.33301 -103.333 35.833 -138 79.5s-52 97.167 -52 160.5c0 71.333 21.667 130.666 65 177.999s97.333 71 162 71c66 0 116 -23 150 -69h2v62h43v-180h-43c0 42 -14.667 75.833 -44 101.5s-64.666 38.5 -105.999 38.5
c-52 0 -94.333 -18.333 -127 -55s-49 -84.334 -49 -143.001c0 -60.667 16.667 -109.5 50 -146.5s76.666 -55.5 129.999 -55.5c76 0 130.667 37.667 164 113l42 -18c-17.333 -44.667 -44.166 -79.5 -80.499 -104.5s-77.833 -37.5 -124.5 -37.5h-13l-6 -29
c22.667 -2.66699 40.5 -10.834 53.5 -24.501s19.5 -31.167 19.5 -52.5c0 -33.333 -15 -57.333 -45 -72s-70.667 -21.334 -122 -20.001v32c32 -2.66699 59.5 0.166016 82.5 8.49902s34.5 23.5 34.5 45.5c0 26 -20.667 41.333 -62 46z" />
    <glyph glyph-name="egrave" unicode="&#xe8;" 
d="M517 225h-424.999c0 -54.667 19.333 -101.167 58 -139.5s85.667 -57.5 141 -57.5c75.333 0 137 34.333 185 103l41 -19c-23.333 -39.333 -55.666 -70.166 -96.999 -92.499s-86.333 -33.5 -135 -33.5c-71.333 0 -130 23.5 -176 70.5s-69 106.833 -69 179.5
c0 73.333 22.5 133.333 67.5 180s102.833 70 173.5 70c69.333 0 125.666 -23.833 168.999 -71.5s65.666 -110.834 66.999 -189.501zM93.001 270h369.999c-8.66699 54.667 -29.5 97 -62.5 127s-74.167 45 -123.5 45c-48.667 0 -89.167 -15.333 -121.5 -46
s-53.166 -72.667 -62.499 -126zM312 536l-119 155h57l100 -155h-38z" />
    <glyph glyph-name="eacute" unicode="&#xe9;" 
d="M517 225h-424.999c0 -54.667 19.333 -101.167 58 -139.5s85.667 -57.5 141 -57.5c75.333 0 137 34.333 185 103l41 -19c-23.333 -39.333 -55.666 -70.166 -96.999 -92.499s-86.333 -33.5 -135 -33.5c-71.333 0 -130 23.5 -176 70.5s-69 106.833 -69 179.5
c0 73.333 22.5 133.333 67.5 180s102.833 70 173.5 70c69.333 0 125.666 -23.833 168.999 -71.5s65.666 -110.834 66.999 -189.501zM93.001 270h369.999c-8.66699 54.667 -29.5 97 -62.5 127s-74.167 45 -123.5 45c-48.667 0 -89.167 -15.333 -121.5 -46
s-53.166 -72.667 -62.499 -126zM241 536h-38l100 155h57z" />
    <glyph glyph-name="ecircumflex" unicode="&#xea;" 
d="M517 225h-424.999c0 -54.667 19.333 -101.167 58 -139.5s85.667 -57.5 141 -57.5c75.333 0 137 34.333 185 103l41 -19c-23.333 -39.333 -55.666 -70.166 -96.999 -92.499s-86.333 -33.5 -135 -33.5c-71.333 0 -130 23.5 -176 70.5s-69 106.833 -69 179.5
c0 73.333 22.5 133.333 67.5 180s102.833 70 173.5 70c69.333 0 125.666 -23.833 168.999 -71.5s65.666 -110.834 66.999 -189.501zM93.001 270h369.999c-8.66699 54.667 -29.5 97 -62.5 127s-74.167 45 -123.5 45c-48.667 0 -89.167 -15.333 -121.5 -46
s-53.166 -72.667 -62.499 -126zM129 540l118 145h50l127 -145h-37l-115 101l-108 -101h-35z" />
    <glyph glyph-name="edieresis" unicode="&#xeb;" 
d="M517 225h-424.999c0 -54.667 19.333 -101.167 58 -139.5s85.667 -57.5 141 -57.5c75.333 0 137 34.333 185 103l41 -19c-23.333 -39.333 -55.666 -70.166 -96.999 -92.499s-86.333 -33.5 -135 -33.5c-71.333 0 -130 23.5 -176 70.5s-69 106.833 -69 179.5
c0 73.333 22.5 133.333 67.5 180s102.833 70 173.5 70c69.333 0 125.666 -23.833 168.999 -71.5s65.666 -110.834 66.999 -189.501zM93.001 270h369.999c-8.66699 54.667 -29.5 97 -62.5 127s-74.167 45 -123.5 45c-48.667 0 -89.167 -15.333 -121.5 -46
s-53.166 -72.667 -62.499 -126zM363 646c9.33301 0 17.333 -3.33301 24 -10s10 -14.667 10 -24s-3.33301 -17.333 -10 -24s-14.667 -10 -24 -10s-17.333 3.33301 -24 10s-10 14.667 -10 24s3.33301 17.333 10 24s14.667 10 24 10zM190 646c9.33301 0 17.333 -3.33301 24 -10
s10 -14.667 10 -24s-3.33301 -17.333 -10 -24s-14.667 -10 -24 -10s-17.333 3.33301 -24 10s-10 14.667 -10 24s3.33301 17.333 10 24s14.667 10 24 10z" />
    <glyph glyph-name="igrave" unicode="&#xec;" horiz-adv-x="250" 
d="M24 0v45h84v383h-84v45h136v-428h80v-45h-216zM130 536l-119 155h57l100 -155h-38z" />
    <glyph glyph-name="iacute" unicode="&#xed;" horiz-adv-x="250" 
d="M24 0v45h84v383h-84v45h136v-428h80v-45h-216zM90 536h-38l100 155h57z" />
    <glyph glyph-name="icircumflex" unicode="&#xee;" horiz-adv-x="250" 
d="M24 0v45h84v383h-84v45h136v-428h80v-45h-216zM-22 540l118 145h50l127 -145h-37l-115 101l-108 -101h-35z" />
    <glyph glyph-name="idieresis" unicode="&#xef;" horiz-adv-x="250" 
d="M24 0v45h84v383h-84v45h136v-428h80v-45h-216zM212 646c9.33301 0 17.333 -3.33301 24 -10s10 -14.667 10 -24s-3.33301 -17.333 -10 -24s-14.667 -10 -24 -10s-17.333 3.33301 -24 10s-10 14.667 -10 24s3.33301 17.333 10 24s14.667 10 24 10zM39 646
c9.33301 0 17.333 -3.33301 24 -10s10 -14.667 10 -24s-3.33301 -17.333 -10 -24s-14.667 -10 -24 -10s-17.333 3.33301 -24 10s-10 14.667 -10 24s3.33301 17.333 10 24s14.667 10 24 10z" />
    <glyph glyph-name="eth" unicode="&#xf0;" horiz-adv-x="563" 
d="M99 236c0 -58.667 17.167 -107.166 51.5 -145.499s77.833 -57.5 130.5 -57.5c53.333 0 97.166 20 131.499 60s51.5 92.333 51.5 157c0 51.333 -16.667 95.666 -50 132.999s-77.666 56 -132.999 56c-52.667 0 -96.167 -19.167 -130.5 -57.5s-51.5 -86.833 -51.5 -145.5z
M493 667.001l-126.001 -58.999c48.667 -40.667 85.834 -89.167 111.501 -145.5s38.5 -116.5 38.5 -180.5c0 -94 -21.667 -166.833 -65 -218.5s-99 -77.5 -167 -77.5c-68.667 0 -125.667 23.333 -171 70s-68 106.667 -68 180c0 70.667 22.667 130 68 178s101 72 167 72
c66.667 0 120.334 -25.667 161.001 -77l2 2c-8 20.667 -15.5 38 -22.5 52s-20 32.5 -39 55.5s-41.5 44.5 -67.5 64.5l-130 -62l-37 26l130 62c-39.333 24.667 -76 43.667 -110 57l55 27c43.333 -18.667 79.666 -38.334 108.999 -59.001l124 59z" />
    <glyph glyph-name="ntilde" unicode="&#xf1;" horiz-adv-x="531" 
d="M7 0v45h87v383h-87v45h139v-73c64 53.333 123.333 80 178 80c38 0 68.833 -11 92.5 -33s35.5 -52 35.5 -90v-312h76v-45h-212v45h84v298c0 60 -26.333 90 -79 90c-26 0 -54.833 -7.66699 -86.5 -23s-61.167 -36 -88.5 -62v-303h77v-45h-216zM131 569l-26.999 0.000976562
c18.667 58.667 48 88 88 88c18 0 43 -8 75 -24s57 -24 75 -24c25.333 0 45 15.667 59 47h26c-6.66699 -26.667 -18.334 -47.834 -35.001 -63.501s-35.667 -23.5 -57 -23.5c-18.667 0 -44 8 -76 24s-55.333 24 -70 24c-26.667 0 -46 -16 -58 -48z" />
    <glyph glyph-name="ograve" unicode="&#xf2;" 
d="M41 236c0 71.333 22.5 130.833 67.5 178.5s100.833 71.5 167.5 71.5c67.333 0 123.5 -24 168.5 -72s67.5 -107.333 67.5 -178s-22.5 -130 -67.5 -178s-101.167 -72 -168.5 -72c-66.667 0 -122.5 23.833 -167.5 71.5s-67.5 107.167 -67.5 178.5zM94 236
c0 -58.667 17.167 -107.167 51.5 -145.5s77.833 -57.5 130.5 -57.5s96.334 19.167 131.001 57.5s52 86.833 52 145.5s-17.333 107.167 -52 145.5s-78.334 57.5 -131.001 57.5s-96.167 -19.167 -130.5 -57.5s-51.5 -86.833 -51.5 -145.5zM312 536l-119 155h57l100 -155h-38z
" />
    <glyph glyph-name="oacute" unicode="&#xf3;" 
d="M41 236c0 71.333 22.5 130.833 67.5 178.5s100.833 71.5 167.5 71.5c67.333 0 123.5 -24 168.5 -72s67.5 -107.333 67.5 -178s-22.5 -130 -67.5 -178s-101.167 -72 -168.5 -72c-66.667 0 -122.5 23.833 -167.5 71.5s-67.5 107.167 -67.5 178.5zM94 236
c0 -58.667 17.167 -107.167 51.5 -145.5s77.833 -57.5 130.5 -57.5s96.334 19.167 131.001 57.5s52 86.833 52 145.5s-17.333 107.167 -52 145.5s-78.334 57.5 -131.001 57.5s-96.167 -19.167 -130.5 -57.5s-51.5 -86.833 -51.5 -145.5zM241 536h-38l100 155h57z" />
    <glyph glyph-name="ocircumflex" unicode="&#xf4;" 
d="M41 236c0 71.333 22.5 130.833 67.5 178.5s100.833 71.5 167.5 71.5c67.333 0 123.5 -24 168.5 -72s67.5 -107.333 67.5 -178s-22.5 -130 -67.5 -178s-101.167 -72 -168.5 -72c-66.667 0 -122.5 23.833 -167.5 71.5s-67.5 107.167 -67.5 178.5zM94 236
c0 -58.667 17.167 -107.167 51.5 -145.5s77.833 -57.5 130.5 -57.5s96.334 19.167 131.001 57.5s52 86.833 52 145.5s-17.333 107.167 -52 145.5s-78.334 57.5 -131.001 57.5s-96.167 -19.167 -130.5 -57.5s-51.5 -86.833 -51.5 -145.5zM129 540l118 145h50l127 -145h-37
l-115 101l-108 -101h-35z" />
    <glyph glyph-name="otilde" unicode="&#xf5;" 
d="M41 236c0 71.333 22.5 130.833 67.5 178.5s100.833 71.5 167.5 71.5c67.333 0 123.5 -24 168.5 -72s67.5 -107.333 67.5 -178s-22.5 -130 -67.5 -178s-101.167 -72 -168.5 -72c-66.667 0 -122.5 23.833 -167.5 71.5s-67.5 107.167 -67.5 178.5zM94 236
c0 -58.667 17.167 -107.167 51.5 -145.5s77.833 -57.5 130.5 -57.5s96.334 19.167 131.001 57.5s52 86.833 52 145.5s-17.333 107.167 -52 145.5s-78.334 57.5 -131.001 57.5s-96.167 -19.167 -130.5 -57.5s-51.5 -86.833 -51.5 -145.5zM142 569l-26.999 0.000976562
c18.667 58.667 48 88 88 88c18 0 43 -8 75 -24s57 -24 75 -24c25.333 0 45 15.667 59 47h26c-6.66699 -26.667 -18.334 -47.834 -35.001 -63.501s-35.667 -23.5 -57 -23.5c-18.667 0 -44 8 -76 24s-55.333 24 -70 24c-26.667 0 -46 -16 -58 -48z" />
    <glyph glyph-name="odieresis" unicode="&#xf6;" 
d="M41 236c0 71.333 22.5 130.833 67.5 178.5s100.833 71.5 167.5 71.5c67.333 0 123.5 -24 168.5 -72s67.5 -107.333 67.5 -178s-22.5 -130 -67.5 -178s-101.167 -72 -168.5 -72c-66.667 0 -122.5 23.833 -167.5 71.5s-67.5 107.167 -67.5 178.5zM94 236
c0 -58.667 17.167 -107.167 51.5 -145.5s77.833 -57.5 130.5 -57.5s96.334 19.167 131.001 57.5s52 86.833 52 145.5s-17.333 107.167 -52 145.5s-78.334 57.5 -131.001 57.5s-96.167 -19.167 -130.5 -57.5s-51.5 -86.833 -51.5 -145.5zM363 646
c9.33301 0 17.333 -3.33301 24 -10s10 -14.667 10 -24s-3.33301 -17.333 -10 -24s-14.667 -10 -24 -10s-17.333 3.33301 -24 10s-10 14.667 -10 24s3.33301 17.333 10 24s14.667 10 24 10zM190 646c9.33301 0 17.333 -3.33301 24 -10s10 -14.667 10 -24
s-3.33301 -17.333 -10 -24s-14.667 -10 -24 -10s-17.333 3.33301 -24 10s-10 14.667 -10 24s3.33301 17.333 10 24s14.667 10 24 10z" />
    <glyph glyph-name="divide" unicode="&#xf7;" horiz-adv-x="668" 
d="M71 299v45h525v-45h-525zM333 88c-8.66699 0 -16 3 -22 9s-9 13.333 -9 22s3 16.167 9 22.5s13.333 9.5 22 9.5s16.167 -3.16699 22.5 -9.5s9.5 -13.833 9.5 -22.5s-3.16699 -16 -9.5 -22s-13.833 -9 -22.5 -9zM333 492c-8.66699 0 -16 3 -22 9s-9 13.333 -9 22
s3 16.167 9 22.5s13.333 9.5 22 9.5s16.167 -3.16699 22.5 -9.5s9.5 -13.833 9.5 -22.5s-3.16699 -16 -9.5 -22s-13.833 -9 -22.5 -9z" />
    <glyph glyph-name="oslash" unicode="&#xf8;" 
d="M519 489l-69.001 -80c42 -50 63 -107.667 63 -173c0 -70.667 -22.5 -130 -67.5 -178s-100.833 -72 -167.5 -72c-55.333 0 -104.666 17.333 -147.999 52l-66 -77l-28 23l68 79c-41.333 46.667 -62 105 -62 175s22.5 128.833 67.5 176.5s100.833 71.5 167.5 71.5
c56.667 0 106 -17.333 148 -52l68 78zM416.999 370l-255 -295c34 -28 72.667 -42 116 -42c52 0 95.333 19.167 130 57.5s52 86.5 52 144.5c0 52 -14.333 97 -43 135zM136.999 101l256.001 295c-32.667 28.667 -71.334 43 -116.001 43
c-52.667 0 -96.167 -19.167 -130.5 -57.5s-51.5 -86.5 -51.5 -144.5c0 -52 14 -97.333 42 -136z" />
    <glyph glyph-name="ugrave" unicode="&#xf9;" horiz-adv-x="542" 
d="M401 0v68.001c-58 -50 -120 -75 -186 -75c-36.667 0 -65.667 10.667 -87 32s-32 49.666 -32 84.999v318h-83v45h135v-350c0 -55.333 25.667 -83 77 -83c28 0 57.833 7.66699 89.5 23s60.5 36.333 86.5 63v302h-83v45h135v-428h81v-45h-133zM277 536.001l-119 155h57
l100 -155h-38z" />
    <glyph glyph-name="uacute" unicode="&#xfa;" horiz-adv-x="542" 
d="M401 0v68.001c-58 -50 -120 -75 -186 -75c-36.667 0 -65.667 10.667 -87 32s-32 49.666 -32 84.999v318h-83v45h135v-350c0 -55.333 25.667 -83 77 -83c28 0 57.833 7.66699 89.5 23s60.5 36.333 86.5 63v302h-83v45h135v-428h81v-45h-133zM236 536.001h-38l100 155h57z
" />
    <glyph glyph-name="ucircumflex" unicode="&#xfb;" horiz-adv-x="542" 
d="M401 0v68.001c-58 -50 -120 -75 -186 -75c-36.667 0 -65.667 10.667 -87 32s-32 49.666 -32 84.999v318h-83v45h135v-350c0 -55.333 25.667 -83 77 -83c28 0 57.833 7.66699 89.5 23s60.5 36.333 86.5 63v302h-83v45h135v-428h81v-45h-133zM124 540.001l118 145h50
l127 -145h-37l-115 101l-108 -101h-35z" />
    <glyph glyph-name="udieresis" unicode="&#xfc;" horiz-adv-x="542" 
d="M401 0v68.001c-58 -50 -120 -75 -186 -75c-36.667 0 -65.667 10.667 -87 32s-32 49.666 -32 84.999v318h-83v45h135v-350c0 -55.333 25.667 -83 77 -83c28 0 57.833 7.66699 89.5 23s60.5 36.333 86.5 63v302h-83v45h135v-428h81v-45h-133zM358 646.001
c9.33301 0 17.333 -3.33301 24 -10s10 -14.667 10 -24s-3.33301 -17.333 -10 -24s-14.667 -10 -24 -10s-17.333 3.33301 -24 10s-10 14.667 -10 24s3.33301 17.333 10 24s14.667 10 24 10zM185 646.001c9.33301 0 17.333 -3.33301 24 -10s10 -14.667 10 -24
s-3.33301 -17.333 -10 -24s-14.667 -10 -24 -10s-17.333 3.33301 -24 10s-10 14.667 -10 24s3.33301 17.333 10 24s14.667 10 24 10z" />
    <glyph glyph-name="yacute" unicode="&#xfd;" horiz-adv-x="531" 
d="M184 -167l66 180l-170 415h-78v45h206v-45h-77l144 -352l133 352h-75v45h197v-45h-72l-242 -640h-132v45h100zM230 536h-38l100 155h57z" />
    <glyph glyph-name="thorn" unicode="&#xfe;" horiz-adv-x="594" 
d="M84 -167v801h-82v45h134v-306h2c18 33.333 43.333 59.5 76 78.5s68.667 28.5 108 28.5c65.333 0 120 -23.5 164 -70.5s66 -105.5 66 -175.5c0 -72.667 -21.667 -132.167 -65 -178.5s-99.333 -69.5 -168 -69.5c-84.667 0 -145 36 -181 108h-2v-261h86v-45h-224v45h86z
M134 235c0 -59.333 17.332 -107.833 51.999 -145.5s79.334 -56.5 134.001 -56.5c54 0 98 18.667 132 56s51 86 51 146c0 58.667 -17.667 106.667 -53 144s-80.333 56 -135 56c-52.667 0 -96 -18.667 -130 -56s-51 -85.333 -51 -144z" />
    <glyph glyph-name="ydieresis" unicode="&#xff;" horiz-adv-x="531" 
d="M184 -167l66 180l-170 415h-78v45h206v-45h-77l144 -352l133 352h-75v45h197v-45h-72l-242 -640h-132v45h100zM352 646c9.33301 0 17.333 -3.33301 24 -10s10 -14.667 10 -24s-3.33301 -17.333 -10 -24s-14.667 -10 -24 -10s-17.333 3.33301 -24 10s-10 14.667 -10 24
s3.33301 17.333 10 24s14.667 10 24 10zM179 646c9.33301 0 17.333 -3.33301 24 -10s10 -14.667 10 -24s-3.33301 -17.333 -10 -24s-14.667 -10 -24 -10s-17.333 3.33301 -24 10s-10 14.667 -10 24s3.33301 17.333 10 24s14.667 10 24 10z" />
    <glyph glyph-name="dotlessi" unicode="&#x131;" horiz-adv-x="250" 
d="M24 0v45h84v383h-84v45h136v-428h80v-45h-216z" />
    <glyph glyph-name="Lslash" unicode="&#x141;" horiz-adv-x="510" 
d="M164 634v-235l137 114v-44l-137 -114v-310h280v225h53v-270h-481v45h92v268l-108 -90v44l108 90v277h-92v45h239v-45h-91z" />
    <glyph glyph-name="lslash" unicode="&#x142;" horiz-adv-x="240" 
d="M9 0v45h85v258l-109 -90v39l109 90v292h-87v45h139v-297l110 91v-39l-110 -91v-298h85v-45h-222z" />
    <glyph glyph-name="OE" unicode="&#x152;" horiz-adv-x="1052" 
d="M991 166l0.000976562 -165.999h-580c-61.333 0 -115.666 9.33301 -162.999 28s-85 44 -113 76s-49.167 67.5 -63.5 106.5s-21.5 80.833 -21.5 125.5c0 40 5.66699 78.667 17 116s29.666 73.666 54.999 108.999s62.166 63.833 110.499 85.5s105.5 32.5 171.5 32.5h587
v-163h-45v118h-354v-261h281v-45h-281v-283h354v121h45zM536.001 45.001l0.000976562 589.002h-115c-48.667 0 -91.667 -6 -129 -18s-67.5 -27.5 -90.5 -46.5s-41.833 -41.833 -56.5 -68.5s-24.834 -53.334 -30.501 -80.001s-8.5 -55 -8.5 -85
c0 -92.667 28.167 -164.334 84.5 -215.001s130.833 -76 223.5 -76h122z" />
    <glyph glyph-name="oe" unicode="&#x153;" horiz-adv-x="927" 
d="M895 226h-406.001c2 -58.667 20.333 -106 55 -142s79.334 -54 134.001 -54c76 0 134.667 33.667 176 101l41 -19c-48.667 -84 -122 -126 -220 -126c-96.667 0 -167.334 42 -212.001 126c-15.333 -38.667 -41 -69.334 -77 -92.001s-77.333 -34 -124 -34
c-67.333 0 -121.333 22.833 -162 68.5s-61 106.5 -61 182.5c0 74 20.667 134 62 180s95.333 69 162 69c46 0 87.167 -12.167 123.5 -36.5s61.833 -56.833 76.5 -97.5c18.667 42 46.334 74.833 83.001 98.5s77.667 35.5 123 35.5c26.667 0 52.667 -4.66699 78 -14
s49.5 -23.666 72.5 -42.999s41.333 -46.5 55 -81.5s20.5 -75.5 20.5 -121.5zM488.999 271h351.999c-3.33301 48.667 -21.166 89.5 -53.499 122.5s-71.5 49.5 -117.5 49.5c-48 0 -89.5 -16.667 -124.5 -50s-53.833 -74 -56.5 -122zM90.998 243
c0 -66 15.3311 -117.833 45.998 -155.5s72.667 -56.5 126 -56.5c48.667 0 89.834 16 123.501 48s50.5 83.667 50.5 155c0 63.333 -15.5 113.333 -46.5 150s-72.833 55 -125.5 55c-49.333 0 -90.666 -17 -123.999 -51s-50 -82.333 -50 -145z" />
    <glyph glyph-name="Scaron" unicode="&#x160;" horiz-adv-x="542" 
d="M43 0l-0.00585938 232.998h46v-23c0 -46.667 19 -86.834 57 -120.501s83 -50.5 135 -50.5c46 0 84.333 13.333 115 40s46 61.334 46 104.001c0 27.333 -7.33301 50.5 -22 69.5s-33.667 33.5 -57 43.5s-49 18.833 -77 26.5s-56.167 16 -84.5 25
s-54.166 19.833 -77.499 32.5s-42.333 31 -57 55s-22 53 -22 87c0 47.333 18.5 87.166 55.5 119.499s84.5 48.5 142.5 48.5c35.333 0 68.5 -7 99.5 -21s56.167 -33.333 75.5 -58h2v68h45v-183h-45v14c0 34.667 -18 65.167 -54 91.5s-77.667 39.5 -125 39.5
c-41.333 0 -75.666 -11.333 -102.999 -34s-41 -51 -41 -85c0 -26.667 7.33301 -49 22 -67s33.834 -31.833 57.501 -41.5s49.667 -18.167 78 -25.5s56.833 -15.666 85.5 -24.999s54.834 -20.666 78.501 -33.999s42.834 -32.5 57.501 -57.5s22 -55.5 22 -91.5
c0 -54 -20.667 -99.167 -62 -135.5s-92.666 -54.5 -153.999 -54.5c-40 0 -77.333 8.83301 -112 26.5s-61 41.834 -79 72.501h-2v-89h-46zM123.994 888.998h35l108 -101l115 101h37l-127 -145h-50z" />
    <glyph glyph-name="scaron" unicode="&#x161;" horiz-adv-x="448" 
d="M38 0l-0.000976562 164.002h46c0 -39.333 13.5 -71 40.5 -95s62.5 -36 106.5 -36c38.667 0 70.334 8.83301 95.001 26.5s37 40.167 37 67.5c0 26 -10.333 45.667 -31 59s-45.5 22.666 -74.5 27.999s-58.167 11.166 -87.5 17.499s-54.333 19.166 -75 38.499
s-31 46.333 -31 81c0 36.667 14.167 67.334 42.5 92.001s63.5 37 105.5 37c56 0 99.333 -20.667 130 -62h2v55h44v-155h-44c-1.33301 34.667 -14.166 63.167 -38.499 85.5s-54.833 33.5 -91.5 33.5c-34 0 -59.667 -9 -77 -27s-26 -38 -26 -60
c0 -20 7.33301 -36.167 22 -48.5s33.167 -20.5 55.5 -24.5s46.333 -9 72 -15s49.667 -12.5 72 -19.5s40.833 -20 55.5 -39s22 -43.167 22 -72.5c0 -42 -16.333 -75.5 -49 -100.5s-76.334 -37.5 -131.001 -37.5c-66.667 0 -114.667 22 -144 66h-2v-59h-46zM76.999 686.002h35
l108 -101l115 101h37l-127 -145h-50z" />
    <glyph glyph-name="Ydieresis" unicode="&#x178;" horiz-adv-x="604" 
d="M183 0v45h94v261l-208 328h-88v45h242v-45h-89l176 -279l177 279h-88v45h224v-45h-82l-208 -328v-261h97v-45h-247zM389 849c9.33301 0 17.333 -3.33301 24 -10s10 -14.667 10 -24s-3.33301 -17.333 -10 -24s-14.667 -10 -24 -10s-17.333 3.33301 -24 10
s-10 14.667 -10 24s3.33301 17.333 10 24s14.667 10 24 10zM216 849c9.33301 0 17.333 -3.33301 24 -10s10 -14.667 10 -24s-3.33301 -17.333 -10 -24s-14.667 -10 -24 -10s-17.333 3.33301 -24 10s-10 14.667 -10 24s3.33301 17.333 10 24s14.667 10 24 10z" />
    <glyph glyph-name="Zcaron" unicode="&#x17d;" 
d="M27 0v45l416 589h-349v-120h-45v165h461v-45l-416 -589h381v130h46v-175h-494zM129 889h35l108 -101l115 101h37l-127 -145h-50z" />
    <glyph glyph-name="zcaron" unicode="&#x17e;" horiz-adv-x="479" 
d="M45 0v45l333 383h-268v-123h-41v168h366v-45l-333 -383h291v128h42v-173h-390zM92 686h35l108 -101l115 101h37l-127 -145h-50z" />
    <glyph glyph-name="florin" unicode="&#x192;" 
d="M357 519h109l-10 -45h-108l-121 -557c-10 -46 -25.333 -79 -46 -99s-50 -30 -88 -30c-24 0 -53.333 5 -88 15l11 49c28.667 -7.33301 52.334 -11 71.001 -11c41.333 0 66.666 21.333 75.999 64l123 569h-82l9 45h82l24 101c17.333 72 60.333 108 129 108
c19.333 0 49 -5.33301 89 -16l-10 -48c-26.667 6.66699 -51.667 10 -75 10c-35.333 0 -58 -17 -68 -51l-15 -50z" />
    <glyph glyph-name="circumflex" unicode="&#x2c6;" horiz-adv-x="333" 
d="M19 540l118 145h50l127 -145h-37l-115 101l-108 -101h-35z" />
    <glyph glyph-name="caron" unicode="&#x2c7;" horiz-adv-x="333" 
d="M19 686h35l108 -101l115 101h37l-127 -145h-50z" />
    <glyph glyph-name="uni02C9" unicode="&#x2c9;" horiz-adv-x="333" 
d="M6 600v29h321v-29h-321z" />
    <glyph glyph-name="breve" unicode="&#x2d8;" horiz-adv-x="333" 
d="M270 669h41.001c-11.333 -34.667 -30.333 -63 -57 -85s-55.667 -33 -87 -33s-60.5 11 -87.5 33s-46.167 50.333 -57.5 85h42c23.333 -47.333 57.666 -71 102.999 -71c44.667 0 79 23.667 103 71z" />
    <glyph glyph-name="dotaccent" unicode="&#x2d9;" horiz-adv-x="333" 
d="M167 646c9.33301 0 17.333 -3.33301 24 -10s10 -14.667 10 -24s-3.33301 -17.333 -10 -24s-14.667 -10 -24 -10s-17.333 3.33301 -24 10s-10 14.667 -10 24s3.33301 17.333 10 24s14.667 10 24 10z" />
    <glyph glyph-name="ring" unicode="&#x2da;" horiz-adv-x="333" 
d="M166 703c25.333 0 47 -8.83301 65 -26.5s27 -39.167 27 -64.5s-9 -47 -27 -65s-39.667 -27 -65 -27s-46.833 9 -64.5 27s-26.5 39.667 -26.5 65s8.83301 46.833 26.5 64.5s39.167 26.5 64.5 26.5zM166 673c-17.333 0 -31.833 -5.83301 -43.5 -17.5
s-17.5 -26.167 -17.5 -43.5s6 -32 18 -44s26.333 -18 43 -18c17.333 0 32 6 44 18s18 26.667 18 44c0 16.667 -6 31 -18 43s-26.667 18 -44 18z" />
    <glyph glyph-name="ogonek" unicode="&#x2db;" horiz-adv-x="333" 
d="M124 0l41 0.000976562c-24.667 -24 -37 -48 -37 -72c0 -16.667 5.5 -30 16.5 -40s25.5 -15 43.5 -15c21.333 0 43.333 4.66699 66 14v-41c-22 -13.333 -43.667 -20 -65 -20c-30.667 0 -56.5 8.83301 -77.5 26.5s-31.5 39.5 -31.5 65.5c0 25.333 14.667 52.666 44 81.999z
" />
    <glyph glyph-name="tilde" unicode="&#x2dc;" horiz-adv-x="333" 
d="M32 569l-26.999 0.000976562c18.667 58.667 48 88 88 88c18 0 43 -8 75 -24s57 -24 75 -24c25.333 0 45 15.667 59 47h26c-6.66699 -26.667 -18.334 -47.834 -35.001 -63.501s-35.667 -23.5 -57 -23.5c-18.667 0 -44 8 -76 24s-55.333 24 -70 24
c-26.667 0 -46 -16 -58 -48z" />
    <glyph glyph-name="hungarumlaut" unicode="&#x2dd;" horiz-adv-x="333" 
d="M212 536h-38l100 155h57zM98 536h-38l100 155h57z" />
    <glyph glyph-name="uni03A9" unicode="&#x3a9;" horiz-adv-x="696" 
d="M203 39v2.00098c-40 34.667 -72.833 79.334 -98.5 134.001s-38.5 115 -38.5 181c0 98 27.333 177.167 82 237.5s122.334 90.5 203.001 90.5s147.167 -31.333 199.5 -94s78.5 -139.667 78.5 -231c0 -68.667 -13.5 -131 -40.5 -187s-59.5 -99.667 -97.5 -131v-2h151v-39
h-218v29c44 29.333 81.5 72.5 112.5 129.5s46.5 121.833 46.5 194.5c0 45.333 -8.33301 89.666 -25 132.999s-43.334 80.666 -80.001 111.999s-79.334 47 -128.001 47c-70.667 0 -128 -28.167 -172 -84.5s-66 -125.833 -66 -208.5c0 -68.667 15.833 -132.667 47.5 -192
s68.834 -103 111.501 -131v-29h-218v39h150z" />
    <glyph glyph-name="uni03BC" unicode="&#x3bc;" 
d="M104 473h49v-239c0 -68.667 12.333 -118.167 37 -148.5s54.667 -45.5 90 -45.5c84 0 126 66.333 126 199v234h49v-473h-49v58h-2c-33.333 -46.667 -75.333 -70 -126 -70c-25.333 0 -47.5 5.33301 -66.5 16s-37.833 28.667 -56.5 54h-2v-270h-49v685z" />
    <glyph glyph-name="pi" unicode="&#x3c0;" horiz-adv-x="530" 
d="M503 459h-81.999v-318c0 -65.333 5 -112.333 15 -141h-45c-10 18.667 -15 63.334 -15 134.001v325h-196c-3.33301 -74 -12.333 -158.833 -27 -254.5s-30.334 -163.834 -47.001 -204.501h-46c18.667 46.667 35 115.667 49 207s22.667 175.333 26 252
c-52.667 0 -90.667 -4.66699 -114 -14l-9 31c26 14.667 68.333 22 127 22h370z" />
    <glyph glyph-name="uni2010" unicode="&#x2010;" horiz-adv-x="344" 
d="M34 214v45h275v-45h-275z" />
    <glyph glyph-name="endash" unicode="&#x2013;" horiz-adv-x="500" 
d="M-6 277h512v-53h-512v53z" />
    <glyph glyph-name="emdash" unicode="&#x2014;" horiz-adv-x="1000" 
d="M-6 277h1012v-53h-1012v53z" />
    <glyph glyph-name="quoteleft" unicode="&#x2018;" horiz-adv-x="250" 
d="M153 553v-93h-56v109c0 71.333 21.667 108 65 110v-36c-13.333 0 -22 -6 -26 -18s-6.66699 -36 -8 -72h25z" />
    <glyph glyph-name="quoteright" unicode="&#x2019;" horiz-adv-x="250" 
d="M97 586v93h56v-109c0 -71.333 -21.667 -108 -65 -110v36c13.333 0 22 6 26 18s6.66699 36 8 72h-25z" />
    <glyph glyph-name="quotesinglbase" unicode="&#x201a;" horiz-adv-x="250" 
d="M97 0v93h56v-109c0 -71.333 -21.667 -108 -65 -110v36c13.333 0 22 6 26 18s6.66699 36 8 72h-25z" />
    <glyph glyph-name="quotedblleft" unicode="&#x201c;" horiz-adv-x="479" 
d="M355 553h25v-93h-56v109c0 71.333 21.667 108 65 110v-36c-13.333 0 -22 -6 -26 -18s-6.66699 -36 -8 -72zM121 553h25v-93h-56v109c0 71.333 21.667 108 65 110v-36c-13.333 0 -22 -6 -26 -18s-6.66699 -36 -8 -72z" />
    <glyph glyph-name="quotedblright" unicode="&#x201d;" horiz-adv-x="479" 
d="M358 586h-25v93h56v-109c0 -71.333 -21.667 -108 -65 -110v36c13.333 0 22 6 26 18s6.66699 36 8 72zM124 586h-25v93h56v-109c0 -71.333 -21.667 -108 -65 -110v36c13.333 0 22 6 26 18s6.66699 36 8 72z" />
    <glyph glyph-name="quotedblbase" unicode="&#x201e;" horiz-adv-x="479" 
d="M335 0v93h56v-109c0 -71.333 -21.667 -108 -65 -110v36c13.333 0 22 6 26 18s6.66699 36 8 72h-25zM97 0v93h56v-109c0 -71.333 -21.667 -108 -65 -110v36c13.333 0 22 6 26 18s6.66699 36 8 72h-25z" />
    <glyph glyph-name="dagger" unicode="&#x2020;" horiz-adv-x="469" 
d="M247 416l0.00195312 -16.5v-17c0 -1.66699 0.166992 -6.66699 0.5 -15s0.666016 -13.833 0.999023 -16.5s1 -7.5 2 -14.5s2 -12.5 3 -16.5s2.5 -8.66699 4.5 -14l6 -16v-89l-17 -401h-24l-17 401v89l6 16c2 5.33301 3.5 10 4.5 14s2 9.5 3 16.5s1.66699 11.833 2 14.5
s0.666016 8.16699 0.999023 16.5s0.5 13.333 0.5 15v17v16.5c-56.667 0 -96.334 -4 -119.001 -12h-91v50h91c22.667 -8 62.334 -12 119.001 -12c0 66 -5.66699 112.333 -17 139v98h57v-98c-10.667 -24.667 -16 -71 -16 -139c56.667 0 96.334 4 119.001 12h91v-50h-91
c-22.667 8 -62.334 12 -119.001 12z" />
    <glyph glyph-name="daggerdbl" unicode="&#x2021;" horiz-adv-x="490" 
d="M285 238c-18.667 -42.667 -27.9971 -106 -27.9971 -190c30 0 54 2 72 6c16 2.66699 31.667 6.66699 47 12h91v-62h-91c-18.667 6.66699 -34.334 11 -47.001 13c-20 3.33301 -44 5 -72 5c0 -42.667 5.33301 -82.667 16 -120v-105h-57v105c11.333 40 17 80 17 120
c-28.667 0 -53 -1.66699 -73 -5c-12 -2 -27.333 -6.33301 -46 -13h-91v62h91c15.333 -5.33301 30.666 -9.33301 45.999 -12c18.667 -4 43 -6 73 -6c0 82.667 -10 146 -30 190c20 44 30 107.333 30 190c-27.333 0 -51.666 -1.66699 -72.999 -5
c-12 -2 -27.333 -6.33301 -46 -13h-91v62h91c15.333 -5.33301 30.666 -9.33301 45.999 -12c18 -4 42.333 -6 73 -6c0 40 -5.66699 80 -17 120v105h57v-105c-10.667 -37.333 -16 -77.333 -16 -120c30 0 54 2 72 6c16 2.66699 31.667 6.66699 47 12h91v-62h-91
c-18.667 6.66699 -34.334 11 -47.001 13c-20 3.33301 -44 5 -72 5c0 -84 9.33301 -147.333 28 -190z" />
    <glyph glyph-name="bullet" unicode="&#x2022;" horiz-adv-x="500" 
d="M250 463c33.333 0 62 -12 86 -36s36 -52.667 36 -86s-12 -62 -36 -86s-52.667 -36 -86 -36s-62 12 -86 36s-36 52.667 -36 86s12 62 36 86s52.667 36 86 36z" />
    <glyph glyph-name="ellipsis" unicode="&#x2026;" horiz-adv-x="1000" 
d="M805 93h56v-93h-56v93zM472 93h56v-93h-56v93zM139 93h56v-93h-56v93z" />
    <glyph glyph-name="perthousand" unicode="&#x2030;" horiz-adv-x="1000" 
d="M976 167c0 -120.667 -45 -181 -135 -181c-44 0 -77.5 15.5 -100.5 46.5s-34.5 76.167 -34.5 135.5s11.5 104.333 34.5 135s56.833 46 101.5 46c89.333 0 134 -60.667 134 -182zM936 167c0 50 -8 88.167 -24 114.5s-39 39.5 -69 39.5c-63.333 0 -95 -51.333 -95 -154
c0 -102 31.333 -153 94 -153s94 51 94 153zM639 167c0 -120.667 -45 -181 -135 -181c-44 0 -77.5 15.5 -100.5 46.5s-34.5 76.167 -34.5 135.5s11.5 104.333 34.5 135s56.833 46 101.5 46c89.333 0 134 -60.667 134 -182zM599 167c0 50 -8 88.167 -24 114.5
s-39 39.5 -69 39.5c-63.333 0 -95 -51.333 -95 -154c0 -102 31.333 -153 94 -153s94 51 94 153zM295 508c0 -120.667 -45 -181 -135 -181c-44 0 -77.5 15.5 -100.5 46.5s-34.5 76.167 -34.5 135.5s11.5 104.333 34.5 135s56.833 46 101.5 46c89.333 0 134 -60.667 134 -182z
M255 508c0 50 -8 88.167 -24 114.5s-39 39.5 -69 39.5c-63.333 0 -95 -51.333 -95 -154c0 -102 31.333 -153 94 -153s94 51 94 153zM76 0l478 679h34l-478 -679h-34z" />
    <glyph glyph-name="guilsinglleft" unicode="&#x2039;" horiz-adv-x="229" 
d="M72 239l152 -239h-55l-153 239l153 239h55z" />
    <glyph glyph-name="guilsinglright" unicode="&#x203a;" horiz-adv-x="229" 
d="M157 239l-152 239h55l153 -239l-153 -239h-55z" />
    <glyph glyph-name="fraction" unicode="&#x2044;" horiz-adv-x="344" 
d="M-84 0l478 679h35l-478 -679h-35z" />
    <glyph glyph-name="Euro" unicode="&#x20ac;" horiz-adv-x="531" 
d="M309 -9c-36.667 0 -69.168 7.83496 -97.501 23.502s-51.166 37.167 -68.499 64.5s-31 56.333 -41 87s-17 63.334 -21 98.001h-69v42h66c0 3.33301 -0.166992 8.66602 -0.5 15.999s-0.5 12.666 -0.5 15.999c0 16.667 0.333008 29 1 37h-66v42h69c4 32.667 10.667 64 20 94
s22.166 58.833 38.499 86.5s38.166 49.834 65.499 66.501s58 25 92 25c66 0 116.667 -29 152 -87v76h45v-166h-45c-7.33301 36.667 -25 68.667 -53 96s-60 41 -96 41c-27.333 0 -51.666 -7.5 -72.999 -22.5s-38.333 -34.833 -51 -59.5s-22.5 -49.334 -29.5 -74.001
s-12.167 -50 -15.5 -76h204v-42h-207c0 -3.33301 -0.166992 -8.66602 -0.5 -15.999s-0.5 -13 -0.5 -17c0 -16 0.333008 -28 1 -36h207v-42h-203c3.33301 -26.667 8.5 -52.167 15.5 -76.5s16.833 -48.833 29.5 -73.5s29.834 -44.334 51.501 -59.001s46.167 -22 73.5 -22
c37.333 0 67 11.667 89 35s42 55.666 60 96.999l43 -19c-40 -103.333 -101.667 -155 -185 -155z" />
    <glyph glyph-name="afii61289" unicode="&#x2113;" horiz-adv-x="450" 
d="M399 129l26 -19c-40.667 -76 -96.667 -114 -168 -114c-50 0 -87.333 17.833 -112 53.5s-37.667 80.834 -39 135.501v14c-4.66699 -4.66699 -13.667 -12.5 -27 -23.5s-23.333 -19.5 -30 -25.5l-18 30c39.333 33.333 64.333 55.666 75 66.999v275
c0 80.667 13.333 138.167 40 172.5s58.334 51.5 95.001 51.5c35.333 0 62.5 -13.833 81.5 -41.5s28.5 -63.167 28.5 -106.5c0 -110 -67.333 -231.667 -202 -365v-27c0 -59.333 11 -103 33 -131s49.333 -42 82 -42c30 0 56.667 9.5 80 28.5s41.666 41.5 54.999 67.5zM149 529
v-245.999c53.333 58 94.5 111.667 123.5 161s43.5 99.333 43.5 150c0 76.667 -26 115 -78 115c-23.333 0 -44 -14.833 -62 -44.5s-27 -74.834 -27 -135.501z" />
    <glyph glyph-name="trademark" unicode="&#x2122;" horiz-adv-x="938" 
d="M113 679h311v-43h-129v-356h-52v356h-130v43zM469 679h76l99 -319h2l102 319h76v-399h-45v356h-2l-116 -356h-34l-110 356h-2v-356h-46v399z" />
    <glyph glyph-name="Omega" unicode="&#x2126;" horiz-adv-x="696" 
d="M203 39v2.00098c-40 34.667 -72.833 79.334 -98.5 134.001s-38.5 115 -38.5 181c0 98 27.333 177.167 82 237.5s122.334 90.5 203.001 90.5s147.167 -31.333 199.5 -94s78.5 -139.667 78.5 -231c0 -68.667 -13.5 -131 -40.5 -187s-59.5 -99.667 -97.5 -131v-2h151v-39
h-218v29c44 29.333 81.5 72.5 112.5 129.5s46.5 121.833 46.5 194.5c0 45.333 -8.33301 89.666 -25 132.999s-43.334 80.666 -80.001 111.999s-79.334 47 -128.001 47c-70.667 0 -128 -28.167 -172 -84.5s-66 -125.833 -66 -208.5c0 -68.667 15.833 -132.667 47.5 -192
s68.834 -103 111.501 -131v-29h-218v39h150z" />
    <glyph glyph-name="estimated" unicode="&#x212e;" horiz-adv-x="843" 
d="M809 331l-629 -0.000976562c-3.33301 0 -5 -1.33301 -5 -4v-191c0 -8 3 -15 9 -21c67.333 -69.333 146.333 -104 237 -104c100 0 183.667 38.667 251 116h55c-35.333 -41.333 -80 -74.166 -134 -98.499s-111.667 -36.5 -173 -36.5c-106.667 0 -197.834 34 -273.501 102
s-113.5 150 -113.5 246c0 96.667 37.833 179.167 113.5 247.5s166.834 102.5 273.501 102.5c107.333 0 199 -34.167 275 -102.5s114 -150.833 114 -247.5v-9zM666 355.999v190.999c0 8.66699 -3 16.334 -9 23.001c-67.333 66 -146 99 -236 99s-168.667 -34.333 -236 -103
c-6.66699 -6 -10 -13.667 -10 -23v-187c0 -4.66699 1.66699 -7 5 -7h482c2.66699 0 4 2.33301 4 7z" />
    <glyph glyph-name="partialdiff" unicode="&#x2202;" horiz-adv-x="509" 
d="M97 671l-19.999 31.998c42.667 34.667 93 52 151 52c63.333 0 117.666 -31 162.999 -93s68 -152 68 -270c0 -115.333 -20.667 -210.333 -62 -285s-100.333 -112 -177 -112c-56.667 0 -100.334 21.333 -131.001 64s-46 94.334 -46 155.001c0 72 20 130.5 60 175.5
s87.333 67.5 142 67.5c41.333 0 76.833 -11.167 106.5 -33.5s49.834 -44.5 60.501 -66.5h1c1.33301 8.66699 2 24.334 2 47.001c0 94 -18.833 169.667 -56.5 227s-82.167 86 -133.5 86c-48 0 -90.667 -15.333 -128 -46zM222.001 32.998h1.99805
c48.667 0 89.334 25.667 122.001 77s52.667 115.333 60 192c-10 28.667 -29.167 55.5 -57.5 80.5s-61.166 37.5 -98.499 37.5c-43.333 0 -81 -19.833 -113 -59.5s-48 -87.5 -48 -143.5c0 -54.667 12.167 -99 36.5 -133s56.5 -51 96.5 -51z" />
    <glyph glyph-name="uni2206" unicode="&#x2206;" horiz-adv-x="615" 
d="M32 0v37l251 656h51l249 -655v-38h-551zM78 38l456 0.00292969l-157 415c-4 11.333 -15.167 40.166 -33.5 86.499s-29.833 78.166 -34.5 95.499h-5c-3.33301 -14.667 -13.5 -43.834 -30.5 -87.501l-30.5 -78.5z" />
    <glyph glyph-name="product" unicode="&#x220f;" horiz-adv-x="658" 
d="M631 632h-108v-725h-44v725h-301v-725h-44v725h-109v41h606v-41z" />
    <glyph glyph-name="summation" unicode="&#x2211;" horiz-adv-x="527" 
d="M504 -93h-482v32l271 349l-258 353v32h454v-40h-389v-4l247 -335l-264 -340v-3h421v-44z" />
    <glyph glyph-name="minus" unicode="&#x2212;" horiz-adv-x="667" 
d="M71 343h525v-45h-525v45z" />
    <glyph glyph-name="uni2215" unicode="&#x2215;" horiz-adv-x="344" 
d="M-84 0l478 679h35l-478 -679h-35z" />
    <glyph glyph-name="uni2219" unicode="&#x2219;" horiz-adv-x="292" 
d="M118 287v93h56v-93h-56z" />
    <glyph glyph-name="radical" unicode="&#x221a;" horiz-adv-x="537" 
d="M533 796l-212 -945h-45l-159 461l-72 -27l-11 31l113 44l135 -386c9.33301 -40 14.333 -61.333 15 -64h1l12 61l186 825h37z" />
    <glyph glyph-name="infinity" unicode="&#x221e;" horiz-adv-x="744" 
d="M694 281l-0.000976562 -1.00098c0 -42.667 -14.167 -77.5 -42.5 -104.5s-61.833 -40.5 -100.5 -40.5c-28.667 0 -55.5 9 -80.5 27s-57.5 48 -97.5 90l-40 -43.5c-10 -10.333 -23.333 -22.166 -40 -35.499s-33.5 -23 -50.5 -29s-34.833 -9 -53.5 -9
c-38 0 -70.667 14 -98 42s-41 61.333 -41 100c0 42 13.667 76.667 41 104s62.333 41 105 41c32 0 61.833 -10.333 89.5 -31s57.834 -49.667 90.501 -87c20 22 34.167 37.167 42.5 45.5s21.166 19.666 38.499 33.999s34 24.333 50 30s33.333 8.5 52 8.5
c40.667 0 73.334 -13.167 98.001 -39.5s37 -60.166 37 -101.499zM194.999 168.999l1 0.000976562c12.667 0 24.834 2.16699 36.501 6.5s23.667 11.166 36 20.499s22.166 17.333 29.499 24s17.5 16.667 30.5 30l25.5 26c-37.333 43.333 -65.333 71.666 -84 84.999
c-26.667 19.333 -54 29 -82 29c-31.333 0 -56 -11.167 -74 -33.5s-26.667 -49.166 -26 -80.499c0 -30 9.83301 -55.333 29.5 -76s45.5 -31 77.5 -31zM554.999 390h-1.00195c-16 0 -32.667 -4.66699 -50 -14s-30.833 -18.166 -40.5 -26.499s-22.834 -21.5 -39.501 -39.5
s-26.334 -28 -29.001 -30c27.333 -28.667 47.833 -49.334 61.5 -62.001s29.334 -24 47.001 -34s34.834 -15 51.501 -15c30.667 0 55.334 10.833 74.001 32.5s28 47.167 28 76.5c0 34.667 -9.66699 62 -29 82s-43.666 30 -72.999 30z" />
    <glyph glyph-name="integral" unicode="&#x222b;" horiz-adv-x="324" 
d="M310 803l-11.998 -31.999c-8.66699 7.33301 -20.334 11 -35.001 11c-20.667 0 -37 -7.33301 -49 -22c-24 -28.667 -36 -88 -36 -178c0 -49.333 2 -132 6 -248s6 -199 6 -249c0 -90.667 -14.667 -155.667 -44 -195c-18.667 -26 -45.334 -39 -80.001 -39
c-22.667 0 -41.667 5.33301 -57 16l11 34c16 -8 31 -12 45 -12c18.667 0 34 7.66699 46 23c24 31.333 36 89.666 36 174.999c0 50 -2 133.5 -6 250.5s-6 199.833 -6 248.5c0 99.333 16 165 48 197c21.333 23.333 47.333 35 78 35c20 0 36.333 -5 49 -15z" />
    <glyph glyph-name="approxequal" unicode="&#x2248;" horiz-adv-x="547" 
d="M475 404l22.9971 -18c-30 -58.667 -70 -88 -120 -88c-4.66699 0 -9 0.166992 -13 0.5s-8.16699 1 -12.5 2l-11 2.5c-3 0.666992 -7.16699 2.16699 -12.5 4.5s-9.16602 3.83301 -11.499 4.5s-6.66602 2.66699 -12.999 6l-12.5 6.5l-14.5 7.5
c-7.66699 4 -12.5 6.66699 -14.5 8c-40 22 -71.333 33 -94 33c-20.667 0 -38.5 -6.33301 -53.5 -19s-29.833 -30.667 -44.5 -54l-24 18c31.333 58.667 74.333 88 129 88c10.667 0 21.834 -1.66699 33.501 -5s21 -6.66602 28 -9.99902s16 -8.33301 27 -15
s18.167 -10.667 21.5 -12l18.5 -9.5l19.5 -10c3.33301 -1.66699 8.83301 -3.83398 16.5 -6.50098s14.5 -4.5 20.5 -5.5s12.667 -1.5 20 -1.5c36 0 67.333 24.333 94 73zM474.997 249l22.999 -18.999c-30 -57.333 -70 -86 -120 -86c-12.667 0 -25.5 1.83301 -38.5 5.5
s-24 7.83398 -33 12.501l-43.5 23c-40 22 -71 33 -93 33c-21.333 0 -39.5 -6.5 -54.5 -19.5s-29.833 -31.167 -44.5 -54.5l-24 18c31.333 59.333 74.333 89 129 89c10.667 0 22 -1.66699 34 -5s21.333 -6.5 28 -9.5s15.667 -7.83301 27 -14.5s18.333 -10.667 21 -12
c1.33301 -0.666992 5.16602 -2.83398 11.499 -6.50098s10.333 -5.83398 12 -6.50098s5.33398 -2.5 11.001 -5.5s9.66699 -4.83301 12 -5.5s6 -2 11 -4s9.16699 -3.16699 12.5 -3.5s7.33301 -0.833008 12 -1.5s9.33398 -1 14.001 -1c35.333 0 66.333 24.333 93 73z" />
    <glyph glyph-name="notequal" unicode="&#x2260;" horiz-adv-x="547" 
d="M381 480l-47 -99h161v-34h-175l-69 -146h244v-34h-259l-54 -115l-27 14l47 101h-152v34h168l68 146h-236v34h250l53 113z" />
    <glyph glyph-name="lessequal" unicode="&#x2264;" horiz-adv-x="547" 
d="M493 92l-437 218v34l437 218v-42l-397 -191v-2l397 -193v-42zM495 16h-445v35h445v-35z" />
    <glyph glyph-name="greaterequal" unicode="&#x2265;" horiz-adv-x="547" 
d="M56 562l437 -218v-35l-436 -217v42l395 192v2l-396 192v42zM495 16h-444v35h444v-35z" />
    <glyph glyph-name="lozenge" unicode="&#x25ca;" horiz-adv-x="539" 
d="M483 336l-196 -378h-38l-194 378l195 379h38zM439 335l-152.003 292c-4 8 -10 23.333 -18 46h-2c-9.33301 -24.667 -15.666 -40 -18.999 -46l-150 -289l153 -294c6.66699 -13.333 12.334 -28.333 17.001 -45h3c4.66699 18 10.334 33 17.001 45z" />
    <glyph glyph-name="fi" unicode="&#xfb01;" horiz-adv-x="542" 
d="M435 690c11.333 0 21 -4 29 -12s12 -17.333 12 -28s-4 -20.167 -12 -28.5s-17.667 -12.5 -29 -12.5c-10.667 0 -20 4 -28 12s-12 17.667 -12 29c0 10.667 3.83301 20 11.5 28s17.167 12 28.5 12zM458 473v-428h71v-45h-197v45h74v383h-255v-383h69v-45h-197v45h76v383
h-73v45h73v87c0 43.333 12 75.833 36 97.5s51 32.5 81 32.5c28 0 51.833 -8.5 71.5 -25.5s32.834 -40.167 39.501 -69.5l-47 -7c-6.66699 20 -15.167 34.5 -25.5 43.5s-23.833 13.5 -40.5 13.5c-20.667 0 -36.334 -6.83301 -47.001 -20.5s-16 -32.167 -16 -55.5v-96h307z
" />
    <glyph glyph-name="fl" unicode="&#xfb02;" horiz-adv-x="542" 
d="M265 679h192v-634h72v-45h-197v45h73v589h-93c6 -8.66699 11 -21.667 15 -39l-47 -7c-6.66699 20 -15.167 34.5 -25.5 43.5s-23.833 13.5 -40.5 13.5c-20.667 0 -36.334 -6.83301 -47.001 -20.5s-16 -32.167 -16 -55.5v-96h77v-45h-77v-383h69v-45h-197v45h76v383h-76v45
h76v87c0 44 11.833 76.667 35.5 98s50.834 32 81.501 32c18 0 34.333 -3.66699 49 -11z" />
    <glyph glyph-name=".null" horiz-adv-x="0" 
 />
    <glyph glyph-name="nonmarkingreturn" horiz-adv-x="333" 
 />
    <glyph glyph-name="one.superior" horiz-adv-x="323" 
d="M84 332v29h56v294h-56v29h99v-323h56v-29h-155z" />
    <glyph glyph-name="two.superior" horiz-adv-x="323" 
d="M276 446l-3.99902 -113.999h-247c0 46.667 19.333 89.334 58 128.001c13.333 13.333 29.833 26.166 49.5 38.499s36 21.833 49 28.5s24.333 15.834 34 27.501s14.5 25.5 14.5 41.5c0 20 -6.83301 36 -20.5 48s-31.834 18 -54.501 18
c-26.667 0 -47.334 -8.16699 -62.001 -24.5s-21 -39.833 -19 -70.5h-39c-4.66699 37.333 4.83301 67.166 28.5 89.499s54.167 33.5 91.5 33.5c35.333 0 63.333 -8.66699 84 -26s31 -40.333 31 -69c0 -26.667 -7.5 -47.334 -22.5 -62.001s-37 -29.667 -66 -45
s-51.833 -31.333 -68.5 -48c-25.333 -25.333 -40.666 -51.333 -45.999 -78h168l3 84h38z" />
    <glyph glyph-name="three.superior" horiz-adv-x="323" 
d="M27 445l38.9971 -0.000976562c8 -59.333 40.667 -89 98 -89c27.333 0 49.333 6.83301 66 20.5s25 31.834 25 54.501c0 24 -10.667 43 -32 57s-51.333 18.333 -90 13v29c30 -3.33301 54 1.83398 72 15.501s27 31.167 27 52.5c0 18.667 -6.66699 34 -20 46
s-30.666 18 -51.999 18c-22 0 -39.167 -6.33301 -51.5 -19s-18.166 -30.334 -17.499 -53.001h-41c0.666992 30 10.834 54.167 30.501 72.5s45.834 27.5 78.501 27.5c33.333 0 60.666 -8.83301 81.999 -26.5s32 -40.167 32 -67.5c0 -36 -17.667 -61.667 -53 -77
c50.667 -16 76 -45.667 76 -89c0 -29.333 -12.667 -53.833 -38 -73.5s-57 -29.5 -95 -29.5c-39.333 0 -71.5 10.833 -96.5 32.5s-38.167 50.167 -39.5 85.5z" />
    <glyph glyph-name="a.superior" horiz-adv-x="333" 
d="M245 398l0.000976562 41c-40 -30 -77.667 -45 -113 -45c-26.667 0 -49 8.16699 -67 24.5s-27 36.5 -27 60.5c0 25.333 10.667 46.166 32 62.499s48.333 24.5 81 24.5c30.667 0 62 -8 94 -24v62c0 42 -27.333 63 -82 63c-46.667 0 -78.334 -16 -95.001 -48l-26 6
c24 43.333 64.667 65 122 65c40 0 69.167 -7.16699 87.5 -21.5s27.5 -37.166 27.5 -68.499v-175h50v-27h-84zM245.001 465v51.999c-30.667 16.667 -59.667 25 -87 25c-25.333 0 -46 -6.16699 -62 -18.5s-24 -28.166 -24 -47.499c0 -17.333 6.33301 -31.333 19 -42
s29 -16 49 -16c17.333 0 36 4.5 56 13.5s36.333 20.167 49 33.5z" />
    <glyph glyph-name="o.superior" horiz-adv-x="354" 
d="M24 540c0 42.667 14.6689 78.334 44.002 107.001s65.666 43 108.999 43s79.666 -14.333 108.999 -43s44 -64.334 44 -107.001s-14.5 -78.334 -43.5 -107.001s-65.167 -43 -108.5 -43c-44 0 -80.667 14.333 -110 43s-44 64.334 -44 107.001zM59.002 540
c0 -35.333 11.167 -64.5 33.5 -87.5s50.833 -34.5 85.5 -34.5c34 0 62.167 11.5 84.5 34.5s33.5 52.167 33.5 87.5s-11.167 64.5 -33.5 87.5s-50.5 34.5 -84.5 34.5c-34.667 0 -63.167 -11.5 -85.5 -34.5s-33.5 -52.167 -33.5 -87.5z" />
    </font>
</defs>
</svg>
